<svg xmlns="http://www.w3.org/2000/svg" xmlns:xlink="http://www.w3.org/1999/xlink" viewBox="0 0 280 250" preserveAspectRatio="xMidYMid" style="display: block; shape-rendering: auto; background: transparent;" width="280" height="250"><style type="text/css">
  .ld-text text {
    text-anchor: middle;
    dominant-baseline: middle;
    font-size: 80px;
    opacity: 0;
    user-select: none;
    pointer-events: none;
  }
</style>
<g class="ld-text" style="transform-origin:140px 125px;transform:scale(1)">
<g transform="translate(140,125)">
  <g transform="scale(1.0000) translate(0,0)"><g class="path" style="opacity: 1; transform-origin: -125.68px -4.77px; transform: matrix3d(0.91, 0, 0, 0, 0, 0.91, 0, 0, 0, 0, 0.91, 0, 0, 0, 0, 1); animation: 1s linear -0.5775s infinite normal forwards running animate-xhlo90ktdll; transform-box: view-box;"><path d="M0.48-8.10L0.48-9.54L20.08-9.54L20.08 49.02L24.56 49.02L24.56 50.46L0.80 50.46L0.80 49.02L5.20 49.02L5.20-8.10L0.48-8.10" style="fill: rgb(97, 31, 10);" transform="translate(-138.200,-25.230)"></path></g><g class="path" style="opacity: 1; transform-origin: -91.2px 6.19px; transform: matrix3d(0.91, 0, 0, 0, 0, 0.91, 0, 0, 0, 0, 0.91, 0, 0, 0, 0, 1); animation: 1s linear -0.495s infinite normal forwards running animate-xhlo90ktdll; transform-box: view-box;"><path d="M51.92 34.70L51.92 34.70L51.92 27.90Q51.92 20.14 51.08 16.58Q50.24 13.02 47.20 13.02L47.20 13.02Q45.44 13.02 44.36 14.02Q43.28 15.02 42.80 17.34L42.80 17.34Q42.08 20.94 42.08 28.30L42.08 28.30L42.08 34.54Q42.08 43.26 42.60 45.02Q43.12 46.78 43.68 47.90L43.68 47.90Q44.56 49.82 47.12 49.82L47.12 49.82Q50.24 49.82 51.20 46.22L51.20 46.22Q51.92 43.66 51.92 34.70 zM46.96 51.26Q36.96 51.26 31.84 46.14Q26.72 41.02 26.72 31.46Q26.72 21.90 32.20 16.74Q37.68 11.58 47.60 11.58Q57.52 11.58 62.40 16.34Q67.28 21.10 67.28 30.86L67.28 30.86Q67.28 51.26 46.96 51.26L46.96 51.26" style="fill: rgb(141, 75, 31);" transform="translate(-138.200,-25.230)"></path></g><g class="path" style="opacity: 1; transform-origin: -46.72px 6.19px; transform: matrix3d(0.91, 0, 0, 0, 0, 0.91, 0, 0, 0, 0, 0.91, 0, 0, 0, 0, 1); animation: 1s linear -0.4125s infinite normal forwards running animate-xhlo90ktdll; transform-box: view-box;"><path d="M88.72 31.66L88.72 31.66L91.04 31.66L91.04 25.50Q91.04 17.90 90.20 15.30Q89.36 12.70 86.96 12.70L86.96 12.70Q85.52 12.70 84.36 13.46Q83.20 14.22 83.20 15.54Q83.20 16.86 83.68 18.22L83.68 18.22L85.68 18.22Q86.32 19.90 86.32 22.26Q86.32 24.62 84.32 26.34Q82.32 28.06 79.28 28.06L79.28 28.06Q72.40 28.06 72.40 21.42L72.40 21.42Q72.40 11.58 89.12 11.58L89.12 11.58Q98.64 11.58 102.28 14.82Q105.92 18.06 105.92 26.70L105.92 26.70L105.92 42.94Q105.92 47.10 108.24 47.10L108.24 47.10Q110.96 47.10 111.44 38.86L111.44 38.86L112.64 38.94Q112.32 45.98 110 48.62Q107.68 51.26 102.40 51.26L102.40 51.26Q92.80 51.26 91.36 45.34L91.36 45.34Q90.32 48.38 88.24 49.82Q86.16 51.26 82.16 51.26L82.16 51.26Q70.32 51.26 70.32 41.58L70.32 41.58Q70.32 35.90 74.84 33.78Q79.36 31.66 88.72 31.66 zM85.52 41.50Q85.52 45.66 85.96 46.86Q86.40 48.06 87.64 48.06Q88.88 48.06 89.96 46.02Q91.04 43.98 91.04 40.38L91.04 40.38L91.04 32.94L90.48 32.94Q85.52 32.94 85.52 40.22L85.52 40.22L85.52 41.50" style="fill: rgb(180, 111, 57);" transform="translate(-138.200,-25.230)"></path></g><g class="path" style="opacity: 1; transform-origin: -1.88px -4.37px; transform: matrix3d(0.91, 0, 0, 0, 0, 0.91, 0, 0, 0, 0, 0.91, 0, 0, 0, 0, 1); animation: 1s linear -0.33s infinite normal forwards running animate-xhlo90ktdll; transform-box: view-box;"><path d="M129.68 33.90Q129.68 42.30 130.56 45.06Q131.44 47.82 133.80 47.82Q136.16 47.82 137.88 45.74Q139.60 43.66 139.60 39.58L139.60 39.58L139.60 22.14Q139.60 18.70 138.24 16.30Q136.88 13.90 134.24 13.90Q131.60 13.90 130.64 17.42Q129.68 20.94 129.68 29.74L129.68 29.74L129.68 33.90 zM158.40 50.46L140.64 50.46L139.76 44.86Q137.04 51.26 128.72 51.26L128.72 51.26Q121.84 51.26 118.04 46.30Q114.24 41.34 114.24 31.50L114.24 31.50Q114.24 11.58 130.08 11.58L130.08 11.58Q137.12 11.58 139.36 15.50L139.36 15.50L139.36-8.10L134.48-8.10L134.48-9.54L154.48-9.54L154.48 49.02L158.40 49.02L158.40 50.46" style="fill: rgb(214, 174, 124);" transform="translate(-138.200,-25.230)"></path></g><g class="path" style="opacity: 1; transform-origin: 34.24px -25.81px; transform: matrix3d(0.91, 0, 0, 0, 0, 0.91, 0, 0, 0, 0, 0.91, 0, 0, 0, 0, 1); animation: 1s linear -0.2475s infinite normal forwards running animate-xhlo90ktdll; transform-box: view-box;"><path d="M172.24 6.86Q168 6.86 166.20 4.70Q164.40 2.54 164.40-0.66Q164.40-3.86 166.36-5.94Q168.32-8.02 172.32-8.02Q176.32-8.02 178.40-6.14Q180.48-4.26 180.48-0.78Q180.48 2.70 178.48 4.78Q176.48 6.86 172.24 6.86" style="fill: rgb(240, 217, 167);" transform="translate(-138.200,-25.230)"></path></g><g class="path" style="opacity: 1; transform-origin: 34px 6.19px; transform: matrix3d(0.91, 0, 0, 0, 0, 0.91, 0, 0, 0, 0, 0.91, 0, 0, 0, 0, 1); animation: 1s linear -0.165s infinite normal forwards running animate-xhlo90ktdll; transform-box: view-box;"><path d="M160.16 13.82L160.16 12.38L179.76 12.38L179.76 49.02L184.24 49.02L184.24 50.46L160.48 50.46L160.48 49.02L164.88 49.02L164.88 13.82L160.16 13.82" style="fill: rgb(97, 31, 10);" transform="translate(-138.200,-25.230)"></path></g><g class="path" style="opacity: 1; transform-origin: 71.84px 5.79px; transform: matrix3d(0.91, 0, 0, 0, 0, 0.91, 0, 0, 0, 0, 0.91, 0, 0, 0, 0, 1); animation: 1s linear -0.0825s infinite normal forwards running animate-xhlo90ktdll; transform-box: view-box;"><path d="M186 13.82L186 12.38L205.28 12.38L205.28 19.74Q206.56 16.06 209.20 13.82Q211.84 11.58 217.20 11.58L217.20 11.58Q229.60 11.58 229.60 24.94L229.60 24.94L229.60 49.02L234.08 49.02L234.08 50.46L211.44 50.46L211.44 49.02L214.72 49.02L214.72 23.02Q214.72 18.22 214.08 16.82Q213.44 15.42 211.76 15.42L211.76 15.42Q209.20 15.42 207.24 18.78Q205.28 22.14 205.28 26.94L205.28 26.94L205.28 49.02L208.72 49.02L208.72 50.46L186 50.46L186 49.02L190.40 49.02L190.40 13.82L186 13.82" style="fill: rgb(141, 75, 31);" transform="translate(-138.200,-25.230)"></path></g><g class="path" style="opacity: 1; transform-origin: 117px 10.59px; transform: matrix3d(0.91, 0, 0, 0, 0, 0.91, 0, 0, 0, 0, 0.91, 0, 0, 0, 0, 1); animation: 1s linear 0s infinite normal forwards running animate-xhlo90ktdll; transform-box: view-box;"><path d="M267.20 8.22L267.20 8.22L269.44 6.86Q269.92 4.38 267.52 4.38L267.52 4.38Q264.08 4.38 264.08 9.66L264.08 9.66Q264.08 11.74 264.64 14.46L264.64 14.46Q270.72 18.54 270.72 24.90Q270.72 31.26 266.32 34.78Q261.92 38.30 254.40 38.30L254.40 38.30Q251.28 38.30 247.92 37.66L247.92 37.66Q244.40 39.90 244.40 41.02Q244.40 42.14 249.52 42.14L249.52 42.14L257.68 42.14Q275.84 42.14 275.84 55.18L275.84 55.18Q275.84 62.22 270.36 66.34Q264.88 70.46 253.28 70.46L253.28 70.46Q233.52 70.46 233.52 61.90L233.52 61.90Q233.52 57.26 239.68 55.50L239.68 55.50L244.48 57.66Q243.84 59.98 243.84 62.06L243.84 62.06Q243.84 68.94 254.08 68.94L254.08 68.94Q260.32 68.94 263.68 66.62Q267.04 64.30 267.04 60.86Q267.04 57.42 265 56.26Q262.96 55.10 256.88 55.10L256.88 55.10L249.12 55.10Q242.64 55.10 239.84 52.94Q237.04 50.78 237.04 47.62Q237.04 44.46 239.04 42.34Q241.04 40.22 246.16 37.10L246.16 37.10Q236.88 34.46 236.88 24.94L236.88 24.94Q236.88 18.94 241.20 15.26Q245.52 11.58 254.16 11.58L254.16 11.58Q259.36 11.58 263.04 13.58L263.04 13.58Q262.56 11.42 262.56 9.66L262.56 9.66Q262.56 5.18 264.96 3.18Q267.36 1.18 270.32 1.18Q273.28 1.18 275.08 2.74Q276.88 4.30 276.88 7.02Q276.88 9.74 275.44 11.06Q274 12.38 271.96 12.38Q269.92 12.38 268.60 11.30Q267.28 10.22 267.20 8.22 zM250.24 23.18L250.24 23.18L250.24 27.50Q250.24 32.86 251.16 34.78Q252.08 36.70 253.96 36.70Q255.84 36.70 256.68 34.82Q257.52 32.94 257.52 27.10L257.52 27.10L257.52 23.18Q257.52 16.94 256.72 14.98Q255.92 13.02 254.04 13.02Q252.16 13.02 251.20 15.06Q250.24 17.10 250.24 23.18" style="fill: rgb(180, 111, 57);" transform="translate(-138.200,-25.230)"></path></g></g><text font-size="80" font-family="Abril Fatface" fill="#611f0a" dy="0.35em" _mstTextHash="7006415" _mstHash="7870">装载</text>
</g>
</g><style type="text/css">@keyframes animate-xhlo90ktdll { 0.00% {transform: translate(0.00px,0.00px) rotate(0.00deg) scale(0.91, 0.91) skew(0deg, 0.00deg) ;opacity: 1.00;}4.00% {transform: translate(0.00px,0.00px) rotate(0.00deg) scale(0.91, 0.91) ;}8.00% {animation-timing-function: cubic-bezier(0.69,0.60,0.35,0.27);transform: translate(0.00px,0.00px) rotate(0.00deg) scale(0.91, 0.91) ;}14.00% {transform: translate(0.00px,0.00px) rotate(0.00deg) scale(0.93, 0.93) ;}18.00% {transform: translate(0.00px,0.00px) rotate(0.00deg) scale(0.94, 0.94) ;}22.00% {animation-timing-function: cubic-bezier(0.67,0.66,0.34,0.33);transform: translate(0.00px,0.00px) rotate(0.00deg) scale(0.96, 0.96) ;}26.00% {transform: translate(0.00px,0.00px) rotate(0.00deg) scale(0.97, 0.97) ;}30.00% {transform: translate(0.00px,0.00px) rotate(0.00deg) scale(0.99, 0.99) ;}34.00% {animation-timing-function: cubic-bezier(0.65,0.71,0.32,0.38);transform: translate(0.00px,0.00px) rotate(0.00deg) scale(1.01, 1.01) ;}40.00% {animation-timing-function: cubic-bezier(0.64,0.74,0.31,0.41);transform: translate(0.00px,0.00px) rotate(0.00deg) scale(1.02, 1.02) ;}46.00% {animation-timing-function: cubic-bezier(0.60,0.91,0.23,0.63);transform: translate(0.00px,0.00px) rotate(0.00deg) scale(1.03, 1.03) ;}50.00% {transform: translate(0.00px,0.00px) rotate(0.00deg) scale(1.03, 1.03) ;}54.00% {transform: translate(0.00px,0.00px) rotate(0.00deg) scale(1.03, 1.03) ;}58.00% {animation-timing-function: cubic-bezier(0.69,0.60,0.35,0.27);transform: translate(0.00px,0.00px) rotate(0.00deg) scale(1.03, 1.03) ;}64.00% {transform: translate(0.00px,0.00px) rotate(0.00deg) scale(1.01, 1.01) ;}68.00% {transform: translate(0.00px,0.00px) rotate(0.00deg) scale(1.00, 1.00) ;}72.00% {animation-timing-function: cubic-bezier(0.67,0.66,0.34,0.33);transform: translate(0.00px,0.00px) rotate(0.00deg) scale(0.98, 0.98) ;}76.00% {animation-timing-function: cubic-bezier(0.66,0.68,0.33,0.35);transform: translate(0.00px,0.00px) rotate(0.00deg) scale(0.97, 0.97) ;}82.00% {animation-timing-function: cubic-bezier(0.65,0.71,0.32,0.38);transform: translate(0.00px,0.00px) rotate(0.00deg) scale(0.94, 0.94) ;}88.00% {animation-timing-function: cubic-bezier(0.65,0.73,0.31,0.40);transform: translate(0.00px,0.00px) rotate(0.00deg) scale(0.92, 0.92) ;}94.00% {animation-timing-function: cubic-bezier(0.63,0.80,0.28,0.48);transform: translate(0.00px,0.00px) rotate(0.00deg) scale(0.91, 0.91) ;}100.00% {animation-timing-function: cubic-bezier(0.63,0.80,0.28,0.48);transform: translate(0.00px,0.00px) rotate(0.00deg) scale(0.91, 0.91) ;} }</style><!-- [ldio] generated by https://loading.io --></svg>