<?xml version="1.0" standalone="no"?><!DOCTYPE svg PUBLIC "-//W3C//DTD SVG 1.1//EN" "http://www.w3.org/Graphics/SVG/1.1/DTD/svg11.dtd"><svg t="1716969338996" class="icon" viewBox="0 0 1024 1024" version="1.1" xmlns="http://www.w3.org/2000/svg" p-id="18388" xmlns:xlink="http://www.w3.org/1999/xlink" width="100" height="100"><path d="M812.4 921.3L525.3 782.7a30.3 30.3 0 0 0-26.6 0L211.6 921.3c-20.3 9.8-44-5-44-27.6V130.2c0-16.9 13.7-30.6 30.6-30.6h627.4c16.9 0 30.6 13.7 30.6 30.6v763.5c0.1 22.6-23.5 37.4-43.8 27.6z" fill="#DEB55D" p-id="18389"></path><path d="M426.8 492.7c-5.1-14-14.9-38.2-25.1-60.1v228.2h-36.3V455.9c-12.6 45.6-29.3 88.5-46.6 116.4-4.2-12.6-13-32.1-20.5-43.3 26.5-37.3 51.2-107.6 62.9-167.2h-53.1v-40h57.3v-87.5h36.3v87.5h46.6v40h-46.6v15.4c10.7 15.8 42.4 72.2 49.8 86.1l-24.7 29.4z m177.9-84.3c6.1 14.4 11.2 33.1 13.5 46.6h99.2v36.3H572.5c-0.9 13.5-2.8 26.1-4.7 38.2h130.4s-0.5 10.2-0.9 15.8c-5.1 62.4-10.2 89.9-21.4 101.5-8.4 8.4-17.2 11.2-30.3 12.1-10.7 1.4-31.7 1.4-53.1 0.5-0.9-11.2-5.1-26.5-10.7-36.3C600.9 625 619 625 626 625c7.5 0 11.6-0.5 15.4-4.2 4.7-5.1 8.8-21 12.1-55.9h-94.1c-14 42.8-40.5 75-92.7 96.9-4.2-9.8-15.8-24.7-24.2-31.7 67.1-26.5 82.9-72.6 88.5-138.8h-66V455h109.9c-2.3-12.6-6.5-27.9-10.7-40l40.5-6.6z m121-44.3v76.4h-41.4v-41.9H497.1V441H458v-76.8h62.4c-2.8-13.5-7.9-31.7-13-45.2l38.2-7c6.5 16.3 13.5 38.6 16.3 52.1h59.6c7-16.8 13-37.7 17.2-53.1H464.5v-34.9h109c-2.3-13-5.1-27.5-8.8-39.6l39.6-5.1c5.6 13.5 9.8 30.7 12.1 44.7H717V311h-72.2l36.8 6.1c-6.5 16.3-13 33.1-19.6 47h63.7z" fill="#FFFFFF" p-id="18390"></path></svg>