<?xml version="1.0" standalone="no"?><!DOCTYPE svg PUBLIC "-//W3C//DTD SVG 1.1//EN" "http://www.w3.org/Graphics/SVG/1.1/DTD/svg11.dtd"><svg t="1716969278134" class="icon" viewBox="0 0 1024 1024" version="1.1" xmlns="http://www.w3.org/2000/svg" p-id="10469" width="100" height="100" xmlns:xlink="http://www.w3.org/1999/xlink"><path d="M446.642087 150.661565L300.521739 0H125.239652l146.120348 150.661565h175.282087zM768.089043 0l-146.164869 150.661565h175.282087L943.415652 0h-175.282087z" fill="#FF5B2D" p-id="10470"></path><path d="M534.394435 60.237913C792.397913 60.237913 1001.73913 276.034783 1001.73913 542.230261 1001.73913 808.20313 792.397913 1024 534.394435 1024 276.168348 1024 66.782609 808.20313 66.782609 542.274783 66.782609 276.034783 276.123826 60.193391 534.394435 60.193391z" fill="#F6DF53" p-id="10471"></path><path d="M534.394435 150.572522c209.563826 0 379.725913 175.415652 379.725913 391.657739 0 216.064-170.162087 391.43513-379.770435 391.43513-209.786435 0-379.904-175.415652-379.904-391.43513 0-216.242087 170.117565-391.657739 379.948522-391.657739z" fill="#FFC462" p-id="10472"></path><path d="M408.754087 215.173565c136.726261-62.820174 296.559304-37.175652 407.952696 65.892174-93.050435-110.458435-238.280348-158.319304-376.342261-123.636869-138.061913 34.637913-245.670957 145.586087-279.28487 287.877565-33.658435 142.336 12.777739 292.062609 119.897044 387.962435a397.04487 397.04487 0 0 1-97.28-261.075479c0.222609-154.35687 88.33113-294.15513 225.057391-357.019826z" fill="#F4B056" p-id="10473"></path><path d="M335.872 453.409391v31.165218h56.097391c-12.466087 56.542609-33.391304 106.852174-62.775652 151.373913l13.801739 35.172174c20.48-34.726957 36.953043-73.015652 49.864348-114.866087v222.608695h31.165217v-227.506087c9.794783 16.027826 21.815652 37.398261 35.617392 64.111305l17.808695-27.158261c-17.808696-25.822609-35.617391-49.864348-53.426087-71.234783v-32.500869h47.193044v-31.165218h-47.193044v-81.474782h-31.165217v81.474782h-56.987826z m154.490435-43.186087v28.493913h44.076522c6.233043 15.582609 12.02087 32.946087 17.363478 52.535653h-64.111305v69.008695h30.72v-40.514782h178.086957v38.733913h30.72v-67.227826h-61.44c6.233043-16.918261 11.575652-34.726957 15.582609-52.535653h44.076521v-28.493913h-100.61913c-5.342609-15.137391-10.685217-28.93913-16.473044-40.96l-32.055652 5.342609c6.233043 10.685217 11.575652 22.706087 16.918261 35.617391h-102.845217z m144.695652 81.029566h-52.98087c-4.897391-19.144348-10.24-36.507826-15.582608-52.535653h84.146087c-3.561739 18.253913-8.45913 35.617391-15.582609 52.535653z m-149.147826 90.37913v29.384348h69.453913c-3.561739 68.118261-32.946087 116.646957-87.707826 146.031304l16.918261 26.713044c43.186087-24.041739 72.570435-58.768696 88.598261-103.735653h99.728695c-1.335652 36.507826-4.452174 57.433043-9.794782 62.330435-4.897391 4.452174-13.356522 7.123478-24.932174 7.123479h-39.624348l8.45913 28.493913h25.822609c8.904348 0 18.253913-0.890435 27.158261-2.226087 10.685217-2.226087 19.144348-5.787826 24.486956-10.24 12.911304-11.130435 19.589565-48.973913 19.589566-113.530435h-123.325218c2.671304-12.911304 4.006957-26.713043 4.897392-40.96h148.257391v-29.384348h-105.961739c-5.342609-17.363478-11.130435-32.946087-17.363479-46.747826l-31.610434 5.342609c6.233043 12.466087 12.466087 26.267826 17.808695 41.405217h-110.85913z" fill="#FF5B2D" p-id="10474"></path></svg>