<?xml version="1.0" standalone="no"?><!DOCTYPE svg PUBLIC "-//W3C//DTD SVG 1.1//EN" "http://www.w3.org/Graphics/SVG/1.1/DTD/svg11.dtd"><svg t="1716968381248" class="icon" viewBox="0 0 1024 1024" version="1.1" xmlns="http://www.w3.org/2000/svg" p-id="3994" xmlns:xlink="http://www.w3.org/1999/xlink" width="200" height="200"><path d="M342.016 850.432l55.296 152.576 168.448-461.824-196.096-71.168L201.216 931.84l140.8-81.408" fill="#FF6045" p-id="3995"></path><path d="M681.984 850.432l140.8 81.408-168.448-461.824-196.096 71.168 168.448 461.824 55.296-152.576" fill="#FF6045" p-id="3996"></path><path d="M512 356.352m-322.56 0a322.56 322.56 0 1 0 645.12 0 322.56 322.56 0 1 0-645.12 0Z" fill="#FFCC00" p-id="3997"></path><path d="M512 691.712c-184.832 0-335.36-150.528-335.36-335.36S327.168 20.992 512 20.992s335.36 150.528 335.36 335.36-150.528 335.36-335.36 335.36z m0-645.12c-171.008 0-309.76 138.752-309.76 309.76s138.752 309.76 309.76 309.76 309.76-138.752 309.76-309.76S683.008 46.592 512 46.592z" fill="#FDC00F" p-id="3998"></path><path d="M512 68.608l35.328 31.232 42.496-20.48 25.6 39.424 46.592-8.192 13.824 45.056 47.104 4.608 1.536 47.104 44.032 17.408-11.776 45.568 37.888 28.672-23.04 40.96 28.672 37.376-33.792 33.28 17.408 43.52-40.96 23.04 5.12 46.592-46.08 11.264-7.68 46.592-47.104-2.048-19.968 42.496-45.056-14.336-30.72 35.84-39.424-26.112-39.424 26.112-30.72-35.84-45.056 14.336-19.968-42.496-47.104 2.048-7.68-46.592-46.08-11.264 5.12-46.592-40.96-23.04 17.408-43.52-33.28-33.28 28.16-37.376-23.04-40.96 37.888-28.672-11.776-45.568 44.032-17.408 1.536-47.104 47.104-4.608 13.824-45.056 46.592 8.192 25.6-39.424 42.496 20.48z" fill="#FDC00F" p-id="3999"></path><path d="M472.576 651.264c-2.048 0-4.096-1.024-5.632-2.56l-27.648-31.744L399.36 629.76c-3.584 1.024-7.68-0.512-9.216-4.096l-17.92-37.888-41.984 1.536c-3.584 0-7.168-2.56-7.68-6.656l-7.168-41.472-40.96-9.728c-3.584-1.024-6.144-4.608-5.632-8.192l4.608-41.984-36.864-20.48c-3.584-2.048-4.608-6.144-3.584-9.728l15.36-38.912-29.696-29.696c-2.56-2.56-3.072-7.168-0.512-10.24l25.6-33.28-20.992-36.352c-2.048-3.584-1.024-7.68 2.048-9.728l33.792-25.088-10.24-40.96c-1.024-3.584 1.024-7.68 4.608-9.216l39.424-15.36 1.024-41.984c0-4.096 3.072-7.168 7.168-7.168l41.984-4.096 12.8-39.936c1.024-3.584 4.608-6.144 8.704-5.12l41.472 7.168 23.04-35.328c2.048-3.072 6.144-4.608 9.728-2.56l37.888 18.432 31.744-27.648c3.072-2.56 7.168-2.56 10.24 0l31.744 27.648 37.888-18.432c3.584-1.536 7.68-0.512 9.728 2.56l23.04 35.328 41.472-7.168c3.584-0.512 7.68 1.536 8.704 5.12l12.8 39.936 41.984 4.096c4.096 0.512 6.656 3.584 7.168 7.168l1.024 41.984 39.424 15.36c3.584 1.536 5.632 5.12 4.608 9.216l-10.24 40.96 33.792 25.088c3.072 2.56 4.096 6.656 2.048 9.728l-20.992 36.352 25.6 33.28c2.56 3.072 2.048 7.168-0.512 10.24l-29.696 29.696 15.36 38.912c1.536 3.584 0 7.68-3.584 9.728l-36.864 20.48 4.608 41.984c0.512 3.584-2.048 7.168-5.632 8.192l-40.96 9.728-7.168 41.472c-0.512 3.584-4.096 6.656-7.68 6.656l-41.984-1.536-17.92 37.888c-1.536 3.584-5.632 5.12-9.216 4.096l-39.936-12.8-27.648 31.744c-2.56 3.072-6.656 3.584-10.24 1.536l-35.328-23.04-35.328 23.04c-2.56 0.512-4.096 1.024-5.632 1.024z m39.424-41.472c1.536 0 3.072 0.512 4.096 1.024l33.792 22.528 26.624-30.72c2.048-2.56 5.12-3.072 8.192-2.048l38.4 12.288 17.408-36.352c1.536-2.56 4.096-4.608 7.168-4.608l40.448 1.536 6.656-39.936c0.512-3.072 2.56-5.632 5.632-6.144l39.424-9.216-4.096-39.936c-0.512-3.072 1.024-6.144 4.096-7.68l35.328-19.456-14.848-37.376c-1.024-3.072-0.512-6.144 1.536-8.192l28.672-28.672-24.576-32.256c-2.048-2.56-2.048-5.632-0.512-8.704l19.968-35.328-32.256-24.064c-2.56-2.048-3.584-5.12-3.072-8.192l9.728-39.424-37.376-14.848c-3.072-1.024-4.608-4.096-5.12-7.168l-1.024-40.448-39.936-4.096c-3.072-0.512-5.632-2.56-6.656-5.12l-12.288-38.4-39.936 7.168c-3.072 0.512-6.144-1.024-7.68-3.584l-22.016-33.792-36.352 17.408c-2.56 1.536-6.144 1.024-8.192-1.024l-30.208-26.624-30.208 26.624c-2.56 2.048-5.632 2.56-8.192 1.024l-36.352-17.408-23.552 34.816c-1.536 2.56-4.608 4.096-7.68 3.584l-39.936-7.168-12.288 38.4c-1.024 3.072-3.584 5.12-6.656 5.12l-39.936 4.096-1.024 40.448c0 3.072-2.048 5.632-5.12 7.168l-37.376 14.848 9.728 39.424c0.512 3.072-0.512 6.144-3.072 8.192l-32.256 24.064 19.968 35.328c1.536 2.56 1.536 6.144-0.512 8.704l-24.576 32.256 28.672 28.672c2.048 2.048 3.072 5.632 1.536 8.192l-14.336 35.84 35.328 19.456c2.56 1.536 4.096 4.608 4.096 7.68l-4.096 39.936 39.424 9.216c3.072 0.512 5.12 3.072 5.632 6.144l6.656 39.936 40.448-1.536c3.072 0 6.144 1.536 7.168 4.608l17.408 36.352 38.4-12.288c3.072-1.024 6.144 0 8.192 2.048l26.624 30.72 33.792-22.528s1.536-0.512 3.072-0.512z" fill="#F9B233" p-id="4000"></path><path d="M512 356.352m-225.792 0a225.792 225.792 0 1 0 451.584 0 225.792 225.792 0 1 0-451.584 0Z" fill="#FFD633" p-id="4001"></path><path d="M427.008 488.448v-24.576c0-18.944 1.024-32.256 11.264-48.64 10.24-17.408 24.064-28.672 38.4-42.496l24.576-23.04c12.8-12.288 22.528-19.968 25.6-27.136 2.048-4.608 2.048-10.752 2.048-16.384v-20.992c0-13.824-3.584-20.48-18.432-19.968-14.336 0-17.92 6.656-17.92 19.456V327.68H427.008v-35.328c0-3.584 0-7.168 0.512-10.752 0.512-8.192 2.048-23.552 17.92-37.888 17.92-16.384 41.472-19.968 65.024-19.968 34.304 0 53.248 7.168 65.536 17.408 2.048 2.048 9.728 8.704 13.824 17.92 4.096 8.704 6.144 20.48 6.144 41.472 0 21.504-1.536 36.352-15.36 53.248-10.24 12.8-35.84 34.816-48.128 46.08-7.168 6.144-18.432 16.384-23.552 24.576-4.096 6.656-4.608 10.752-4.608 14.336h93.184v50.688H427.008z" fill="#F9B233" p-id="4002"></path></svg>