<svg xmlns="http://www.w3.org/2000/svg" width="1024" height="1024" viewBox="0 0 768 768"><path style="fill:#fff;fill-opacity:1;stroke:none" d="M0 0h768v768H0z"/><path style="stroke:none;fill-rule:nonzero;fill:#b2d998;fill-opacity:1" d="m381.898 524.324-86.472-61.574L381 503.102l-78.375-52.579L381 492.977l-78.375-56.852 75.523 41.773-66.824-50.472 65.7 23.097-75.598-53.324 80.472 36.676-1.199-6.45-88.574-43.198 91.5 33.375-1.727-4.278-94.199-41.097 93 34.722 1.2-6.449-104.473-41.852 104.472 30.227v-4.648L250.273 336l122.852 34.5-110.023-47.324 108.296 33-127.5-52.574 132 40.046-141.074-55.421 131.551 40.347-5.102-5.398L335.398 312l-35.472-14.852-19.5-7.722-18.903-7.125-17.097-5.926-14.028-4.125-4.125-.898-5.546-.75 5.847.449 7.574.972 7.875 1.5 9 1.875 19.125 4.727 19.954 5.477 19.347 5.773 17.477 5.398L354 305.625l-45.824-19.648L268.875 270l-18.45-7.05-15.75-5.4-6.675-1.948-4.727-1.125-2.921-.375 1.347.671 3.824 1.352 27.227 8.102L360.3 294.3l-133.277-46.653L354 280.426l-123.977-35.028 131.25 26.477-.972-3.523-143.852-28.727 130.278 14.852-45.375-10.125-40.727-8.25-30-5.403-17.102-2.472-6.898-.75 3.75-.079 24.75 1.653 102.977 8.773-139.125-30.3 48 6.976 94.648 14.25-3.523-5.55-106.875-24.973-32.176-6.977 27.074 4.8 108 17.848-5.324-6.296-125.477-22.653 110.102 12.301-12.528-3.227-22.796-4.875-15.829-2.847-17.023-2.7-20.55-2.703-14.098-1.574-32.403-2.625 13.574-.148 32.778.75 55.347 2.472-116.847-12.375 100.426 2.704-105.602-6.977 99.227-6-101.778 1.727 67.95-11.25-67.95 7.574 86.028-20.7-4.426-2.25-96.153 21.297 80.926-27.75-16.722-5.472-.903 1.875-3.148 3.222-3.074 2.329-3.829 2.25-5.546 2.847-6.454 2.778-8.773 3.296-14.7 4.653-14.85 3.597-12.677 2.102-6.972.523 16.347-7.347 9.528-3.903 14.398-5.171 11.625-3.227 13.352-4.352 5.25-2.023 8.023-3.45.903-.6.222-.376-.074-.3-.602-.45-1.5-.449-3.75-.676-9.148-.75-3.602 3.074-7.046 4.653-8.926 4.347-9.375 3.454-6.227 1.722-13.426 3.074-18.148 3.153-11.477 1.574L138 130.8l16.2-5.925 16.198-4.426 16.352-3.75-14.926-3.3-3.972 2.851-7.278 4.05-5.097 2.25-7.5 2.626-4.579 1.199-11.023 2.25-10.648 1.648-17.778 1.954 16.653-6.528 14.25-4.875 15.074-4.05 17.926-3.825-10.579-1.722-19.199 6.597-9.597 2.625-8.102 1.125-7.648.676-23.403 1.727 22.653-7.204 10.949-2.921 8.773-1.278 21.153-2.25-33.375.074-18.227-.597-14.398-1.426-7.426-1.2-6.676-1.277-8.102-2.097 17.477-1.426 10.05-.602 9.825-.296 8.398.222 4.426.45 10.2 1.652 14.476 3.148 9.45 2.477-19.65-6.676-11.175-4.05-16.05-6.524-7.876-3.903-2.25-1.5-1.125-1.125-.222-.523.222-.375 1.5-.227 1.727.153 6.3 1.199 7.95 2.176L123.676 93l45.597 19.648-9.074-3.75-9.148-4.046L141 99.75l-4.95-2.773-17.027-10.954-10.796-6.671 9.671 1.421L132.45 83.7l9.824 2.926 4.125 1.648 3.977 2.028L154.801 93l8.699 6 8.023 6.148 10.426 8.926 3.227 1.125 6 .602-13.051-9.75-7.426-6-7.199-6.301-6-6-3.602-4.426-3.074-4.426-2.625-4.421-2.097-3.829-3.75-8.546 14.324 9.222 7.574 5.176 6.75 5.176 2.7 2.398 1.8 1.875 4.125 5.7 4.727 7.203 10.125 16.949.671.75 1.352.75 3.602 1.273 8.699 1.727-48.074-66.676 68.023 73.648 9.227 3.75-56.403-80.398 74.25 89.176L198 38.023l74.55 110.704-44.925-88.954L216 36.227l72.75 123.824 3.227 4.05-41.704-117.675 54.301 125.176-5.55-28.051L295.198 126l-4.347-18.977-4.727-18.898-4.95-17.102-2.55-7.574-4.125-9.972-2.852-4.875 3.602 4.875 3.602 5.625 3.523 6.222 3.148 6.45 5.926 14.175 3.977 11.176 3.676 11.55 6.148 22.876 4.727 21.3 6.824 36.223.676 1.727.671.898.375-.449-.296-3.75-3.903-43.574-2.176-19.875-2.398-19.801-2.7-18.227-1.5-8.25-1.425-6.75-1.648-6.074-1.426-3.972 1.125.898 1.273 1.648 1.426 2.778 1.8 4.722 2.024 6.528 1.801 7.125L314.023 102l3.227 19.426 4.2 29.926 3.75 33.296.902 10.579.074 5.699.3 1.05 1.274 1.797 2.023 1.579-.074-28.954-.676-37.875-.75-19.648-1.046-18-1.426-14.7-.903-5.925-.972-3.75 1.5 3 1.5 3.824 1.5 4.875 1.875 7.653 1.648 9.148 2.7 20.102 1.874 21.671 1.352 21.602.75 19.8.602 31.348 2.398 3.676 2.7-41.55 1.874-35.172.528-16.278.222-13.5-.222-9.375.597.676.676 1.5.824 2.852.75 4.574.676 6.449.977 15.227.449 17.773.222 18.45-.375 45.902 6.676-25.204L366 163.95l4.727-22.722 1.722-11.625.227-3.829.449 1.5.227 2.403-.301 9.449L372 152.551l-1.727 16.125-2.25 17.25-2.699 17.023-2.926 15.301-3.074 12.074-1.125 3.375-1.949 4.125 1.574-2.472 3.676-7.954 5.023-12 5.778-14.546L378 185.176l5.102-15.301 2.023-7.273 2.398-10.352.75-6.148-.074 7.875-.449 4.949-1.2 7.5-1.652 8.324-4.5 17.477-5.25 17.625-5.398 16.199-9.45 25.875L399.149 159l-34.796 111.602v4.796l13.347-24.222 15.903-30.45 7.199-15.078 3.148-7.046 2.403-5.852 1.875-5.55.972-3.75v.823l-.972 4.579-1.426 4.5-7.5 20.625-13.426 33.523-17.477 42 1.278 1.5 48.074-90.227-43.574 104.852 1.722 4.05 50.403-92.027-48.074 110.926 1.273 3.75 53.852-89.176L382.5 347.176l1.125 3.3 56.324-84.675-55.199 99.75v4.949L444 284.926l-57.75 103.949v6.148l63.227-87.148-63.227 104.324v5.403l74.102-96.153L386.25 437.4v3.527l83.176-75.375-75.375 87.676 92.472-28.727-101.773 52.2 80.102-13.95-81.227 40.273Zm0 0"/><path style="stroke:none;fill-rule:nonzero;fill:#7aa355;fill-opacity:1" d="m151.5 110.176 24.977 4.8 22.421 4.95 14.625 3.75 12.375 3.898 9.528 4.2 13.199 6.902 15.523 9.222 8.403 5.477 8.324 5.926 8.398 6.523 5.477 4.574 10.5 9.829 5.023 5.25 4.653 5.398 4.347 5.55 7.278 10.126 6.222 9.074 5.704 9.074 4.875 8.403 4.5 8.546 3.824 8.329 3.523 8.546 3.153 8.852 2.773 9.074 2.7 9.903 6.448 25.273 2.102 9 3.676 19.727 1.574 10.875 1.352 12.449.972 13.05.676 15.223.3 16.051-1.948 153.074 6.074 3.977 1.875-77.324.523-59.176-.074-21.528-.602-22.347-1.273-21.528-1.05-10.046-1.2-8.704-3.602-18.523-4.949-20.926-2.847-10.875-6.676-21.824-3.676-10.352-5.176-13.199-5.55-11.625-5.547-9.597-13.426-19.653-9.75-13.125-5.25-6.597-5.551-6.375-5.926-6.301-6.449-6.227-5.023-4.5L282.75 156l-6.074-4.352-8.778-5.546-8.921-5.25-9.079-4.801-9.375-4.352-9.523-3.972-9.676-3.602-9.824-3.074-10.05-2.7-8.7-1.874-21.676-3.602Zm0 0"/><path style="stroke:none;fill-rule:nonzero;fill:#10726f;fill-opacity:1" d="m355.273 548.023-.671-9.375-1.125-9.296-1.5-9.227-1.954-9.227-2.398-9.074-2.852-8.926-6.296-3.222-4.125-1.727-9.977-3.523-16.352-4.653-12.449-2.921-6.074-2.551-4.8-2.551-5.4-3.227-10.8-7.347-10.273-7.653-17.028-13.875 8.403 4.653 8.546 4.273 8.778 3.903 8.926 3.449 5.171 1.648 5.329 1.278 16.199 3.222 5.25 1.426 5.097 1.8 4.801 2.098 4.653 2.403 4.5 2.773 4.273 3.074 4.05 3.301 3.825 3.676 3.523 3.977-3.898-10.051-3.977-9.153-4.199-8.773-3.972-7.727-7.352-13.5-7.727-1.875-7.722-1.574-7.727-1.273-7.875-.977-5.176-.375-10.046.227-21.903 2.55-11.773.973-10.051-.074-5.477-.523-5.625-.977-5.699-1.273-10.949-3.301-13.352-5.102-7.875-3.523 28.204 1.8 19.046.899 10.426-.074 33.301-.824 12.75.523 3 .375 7.5 1.727 7.727 2.472 14.398 5.625-5.7-9.75-4.874-7.273-5.324-7.352-6.301-7.949-13.352.227-9.523.597-9.45 1.2-4.351.902-12.523 3.898-10.727 3-16.5 3.903-9.375 1.648-3.523.3-16.352.075-42.227-.977 31.653-3.671 14.699-2.551 3.148-.75 7.727-2.477L222 399.227l9.074-2.926 7.875-2.028 6.676-.597 9.074.074 20.551 1.05 15.3 1.348-6-6.671-6.152-6.375-6.449-6.153-21.824 4.426-10.352 1.648-5.097.602-16.352 1.2-2.398.374-3.153 1.801-7.648 6.75-3.074 2.477-4.051 2.699-6.148 3.449-7.801 3.3-9.602 2.774-15.75 3.153-15.222 2.472-12.903 1.727-12.375 1.273 21.75-5.625 12.375-3.75 12.153-4.273 5.625-2.324 4.574-2.25 5.097-3.153 12.829-12.676 9.375-8.25 9.375-7.5 4.273-2.847 5.324-3 6-1.95 8.176-1.652 9.523-1.199-7.273-4.05-12.148-5.774-4.875-1.875-8.102-2.551-19.5 19.8-7.352 6.973-6.597 5.625-8.403 6.301-4.421 3.074-4.954 2.926-3.375 1.727-3.824 1.574-4.125 1.273-4.199 1.051-4.8.676-5.325.3-29.55.75-11.552.15-8.171-.302 2.625-1.949 2.546-1.273 4.125-1.727 11.176-3.75 12.977-3.523 6.597-1.574 15.75-2.852 7.125-2.477 5.477-2.472 5.625-3.074 5.477-3.375 5.171-3.454 9.079-6.824 6.296-5.472 2.028-2.102.449-.75-.074-.375-2.028-.75-5.921-.227-8.176.676-4.5.824-7.5 2.176-5.324 2.477-2.926 1.949-10.95 9.45-6.078 4.198-6.597 3.227-3.676 1.426-9.45 2.847-11.402 2.176-7.199.903L75 380.852l-14.023 1.125-8.028.296-4.426-.148 5.704-1.273L63.602 378l5.921-2.398 8.25-3.977 9-5.324 4.579-3.227 9.296-7.273 4.727-3.301 4.727-3 9.75-5.102 4.648-2.097 7.125-2.7 6.602-2.101 6.375-1.727 5.546-1.125 9.079-1.199 9.222-.449 11.778-.074 6.375.3 6.296.598 4.278.602 7.574 1.875 3.523 1.273 3 1.5 2.551 1.727-.676.676 8.926 2.25 5.477 1.949 6.75 2.847 7.199 3.454 8.625 4.722 7.8 4.875 7.052 4.801 6.222 4.727 6 5.097 5.477 5.102 4.875 4.949 9.074 10.426L312.075 417l-2.098-7.727-2.477-7.722-18.074-17.102 7.125 3.227 6.898 3.597-3.074-6.449-3.602-6.523-2.625-4.2-2.921-4.05-3.153-3.824-2.773-2.852-3.153-2.852-7.347-5.171-8.102-4.727-6.375-3.148-6.375-2.778-12.375-4.722L231 336.602l-10.05-2.778 8.323 1.2 13.204 2.402 9.898 2.398 4.648 1.426 4.426 1.574 3.75 1.653 21.903 11.023 6 3.375 9.523 6.148 6.3 5.102 2.7 2.852 2.023 2.773 1.579 2.7 1.046 2.85 1.653 7.126.523 4.125.676 8.472 8.324 6.375 4.125 3.602 3.903 3.824 3.671 3.977 5.852 7.648 2.176 3.45 3.523 7.277 1.653 4.8 1.347 4.95 1.051 5.023.676 5.028.597 9.824-.074 7.125-.523 6.375-.75 6.074-.903 4.875-1.125 4.352-.898 2.625 3.523 10.125 1.954 6.972 1.648 7.125 2.176-3.222 2.472-4.278 2.176-4.722 4.2-10.954 1.726-5.921 1.5-6 1.05-5.852.75-5.852.223-5.25-.222-3.148-.528-3.074-.972-3-1.2-2.852-3.152-5.472-2.773-3.829-5.852-6.449-2.625-2.55-6.074-4.95 3.676 1.125 5.699 2.477 3.45 1.875 3.374 2.25 3.528 2.847 4.347 4.579 1.95 2.773 1.8 2.926 1.5 3.3 1.278 3.672.898 3.75.602 4.278.148 4.722-.375 5.852-.676 5.55-1.125 5.325-3 10.2-1.8 4.573-3.075 6.602-3.074 5.625-3.148 5.176-2.704 3.972-4.125 5.329 1.5 11.472 1.051 11.25-.972 6.528-1.653 8.097-1.199 3.153-.824.75-.301-.153-.45-.676-.527-1.648-1.273-8.398Zm-5.324-54.375-.222-9.972-.602-5.324-1.352-7.954-1.796-7.875-2.102-7.648-4.727-13.727-2.25-5.324-1.421-2.699-2.329-3.523-6.148-7.579-7.648-8.398-.528 13.648 8.403 15.375 8.398 17.329 7.8 17.546ZM266.324 372l-5.926-4.8-6.222-4.575-7.875-5.023-2.852 3.597-4.199 4.5-2.398 2.176-3.227 2.477-.148.523 2.25.148 14.171-.75 5.551.153 5.477.597Zm0 0"/><path style="stroke:none;fill-rule:nonzero;fill:#2f7753;fill-opacity:1" d="m535.8 499.352-3.152-4.875-3.597-7.653-3.227-8.773-1.199-4.352-.824-3.898-.676-7.5-.227-8.852.079-17.398 8.625 19.8 2.773 7.047 1.875 6.079 1.2 6.597.823 7.727.227 7.5-.3 6 10.124-11.477 11.028-13.125-3.153-5.023-3.597-7.653-3.153-8.625-1.199-4.273-.75-3.824-.676-7.5-.3-8.852.078-17.398 8.699 19.8 2.699 7.047 1.95 6.079 1.198 6.222.75 7.352.301 7.273-.222 6.074 20.324-26.097-1.278-1.278-1.5-2.097-4.722-8.7-3.153-7.277-2.324-7.199-.75-3.227-.898-7.421-.602-8.852-.523-17.477 9.375 19.5 2.926 7.051 2.097 5.926 1.574 7.273 1.051 8.403.45 7.949-.376 5.7 7.426-9.973 9.153-13.579-1.278-1.5-1.8-2.847-3.75-7.051-3.376-8.324-1.347-4.125-.824-3.676-.903-7.05-.597-8.325-.454-16.352 7.579 15.602 3.449 8.023 2.55 6.903 1.348 6 .903 7.05.523 6.899-.074 5.7 17.398-27.825-2.324-3.074-3.977-8.028-2.625-6.671-1.875-6.602-.597-2.852-.602-6.824-.222-8.023.074-15.75 6.75 15.3 3.074 7.797 2.176 6.75 1.125 6 .676 7.125.222 6.903-.3 5.398 18.976-31.8-1.426-1.422-1.8-2.477-3.598-6.45-3.375-7.652-1.352-3.898-.824-3.375-.824-6.375-.528-7.5-.449-14.852 7.278 14.102 3.375 7.273 2.398 6.227 1.273 5.7.977 6.75.375 6.448-.148 5.102L655.8 323.25l-1.5-1.426-3.301-5.25-3.45-7.199-2.624-7.574-.75-3.301-.602-6.148-.222-7.278.074-14.25 6.75 13.801 3.074 7.125 2.176 6.074 1.125 5.403.676 6.449.222 6.148-.3 4.95 11.027-20.848h-.602l-.824-4.2-.45-4.277-.152-4.273.153-4.278.449-4.273.824-4.2 3-9.902 3.375-8.847 3.903-8.852.296 18.977-.296 10.574-.977 4.648-1.8 5.329-4.348 10.273 9.449-5.398 4.8-2.403 3.899-1.574 10.352-2.398 20.25-4.051-10.727 7.722-6.148 4.051-5.926 3.45-4.95 2.25-2.777.75-6.75.828-9.523.222-4.125-.074-10.727 22.727 4.5-.977 6.602-.602 7.199.079 3.523.375 3 .523 5.551 1.648 6.45 2.329 12.453 5.097-14.403.824-7.199.153-6.074-.301-6.153-1.273-6.824-2.102-5.847-2.324-2.329-1.278-1.046-.898-9.454 19.875-4.949 9.227 5.625-.977 7.5-.523 8.028.148 7.125.977 6.597 1.949 7.574 2.773 14.704 6.074-16.954.977-8.625.074-7.125-.3-6.824-1.348-7.722-2.324-6.829-2.704-4.421-2.472-17.852 30.449 5.477-.75h7.722l8.324.676 4.051.676 3.375.824 6.45 2.398 7.425 3.301 14.25 7.05-17.023-.152-8.625-.523-7.125-.824-8.477-2.477-9.148-3.75-4.875-2.55-2.852-2.172-17.55 28.722 5.703-.597 7.5.074 7.875.676 6.972 1.5 6.45 2.398 7.425 3.3 14.25 7.052-17.023-.227-8.625-.45-7.125-.902-6.602-1.796-7.426-2.778-6.597-3.074-4.352-2.773-6.3 9.523-10.348 14.477 5.699-.602 7.8.074 8.4.824 4.05.676 3.45.903 6.6 2.472 7.65 3.45 14.698 7.277-17.472-.45-8.778-.601-7.273-.898-8.773-2.551-9.375-3.903-5.028-2.625-3-2.25-21.3 28.5 6-.824 8.777-.074 9.676.676 4.648.676 4.05.898 7.5 2.477 8.774 3.375 16.875 7.273-22.574-.3-7.95-.45-6.675-.75-6.602-1.5-11.25-3.75-9.222-4.125-2.176-1.273-.977-.903-11.921 14.778-8.926 9.898 6.523-.824 8.477-.227 8.926.528 7.949 1.347 7.574 2.403 8.773 3.375L607.273 513l-22.875.375-8.023-.227-6.676-.597-6.3-1.352-10.723-3.375-9.153-3.972-3.671-2.25-23.25 25.347-34.875 28.574Zm0 0"/><path style="stroke:none;fill-rule:nonzero;fill:#519886;fill-opacity:1" d="m526.8 153.227-2.402-2.176-2.171-1.278-3.602-1.273-2.477-.45-2.546-.152-3 .153-3.602.597-3.45.903-4.124 1.5-4.801 2.176-3.148 1.949-2.852 2.176-2.477 2.546-2.171 2.852-1.954 3-1.648 3.227-2.625 6.75-2.102 8.773-1.125 10.05-.148 4.348.148 7.204.375 3.898 2.25 9.898 1.875 6.75 2.176 6.602 2.324 5.25-9.074-2.773-3.898-.375-1.352.296-.523.454-.977 2.324-.75 5.472-.074 6.602.523 6.3.528 2.774.824 2.852v.824l-.977 1.727-5.398 4.199-1.273 1.574-1.125 2.55-.301 1.723-.227 6.829.301 18.074-.148 10.875-.227 1.574-5.102 17.102-2.546 11.546-.977 6.375-.602 6.528-.523 10.347-.676 3.602-1.05 3.602-3.149 6.75-2.023 3.222-3.227 4.574-3.523 4.204-3.602 3.898-3.375 3.3-8.926 7.95-2.926 3.45-4.5 6.3-4.875 8.398-2.171 4.727-1.801 4.95-.903 3.448-.597 3.454-.301 3.449-.3 12.972-.973 12.676-1.352 8.102-2.102 7.426-1.5 3.449-1.722 3.222-1.574 2.403-3.227 3.523-2.55 2.028-2.626 1.574-11.25 4.722-2.773 1.5-2.926 2.102-3.75 3.898-3.824 5.852-3.602 7.125-1.648 3.898-2.7 8.329-1.05 4.273-1.278 8.625-.222 4.352.148 4.125.45 3.898.675 2.7 1.2 2.777 1.652 2.921 4.125 5.551 6.75 6.903 4.5 3.824 9.074 6.898 8.25 5.551 8.176 4.95 89.773-32.098 34.051-69.75L555 369.898v-59.773l-7.727-69.227Zm0 0"/><path style="stroke:none;fill-rule:nonzero;fill:#b7d99d;fill-opacity:1" d="m532.426 153.602-4.5.148-4.426.676L519 156l-2.023 1.273-1.801 1.579-4.426 5.097-4.727 6-2.25 3.227-1.796 3.3-1.801 4.422-.45 2.176-.453 5.852-.074 7.949.375 9.148.75 9.079 1.051 7.949.75 3.375 1.574 5.25.977 4.05.676 4.5.523 5.25.074 7.5-.898 8.024-.903 4.05-1.199 4.052-1.5 3.972-1.949 3.824-2.398 3.75 2.171 2.778 1.801 1.648 2.926 2.25 7.727 4.727 12.75 6.3 15.148 6.45-9.375-.824-4.426-.676-11.097-2.25-6.153-1.727-6.222-2.023-6.301-2.625.074 6.375.977 8.773 1.796 9.903 1.352 5.023 2.926 8.102 1.426 2.921 4.046 7.204 2.028 4.273 1.574 4.125 1.352 4.2.898 3.75.824 6.976-.074 2.926-.227 2.398-.449 1.426-.972 1.8-1.653 2.25-2.926 3.297-8.398 8.028-10.426 8.55-20.773 15.524-4.125 3.45-7.5 7.35-6.375 7.427-4.125 5.546-3.227 4.801-2.55 4.653-1.5 3.222-.149.903.523 2.25.829 1.5 2.023 2.847 3.148 3.45 3.602 3.374 4.125 3.676L462.75 474l16.426 12-40.875-19.574-.074 7.875-.227 3.75-1.426 9.222-1.273 5.102-2.324 6.898-1.579 3.454-1.796 3.375-2.102 3.222-2.398 3.227 16.347 8.625 37.875 18.676-38.25-13.426-16.05-5.028-3.223-.523-5.926 2.55-3.375 1.723-7.2 4.5-3.6 2.926-3.45 3.375-2.023 2.477-1.875 2.625-1.579 2.926-.75 2.171-.671 2.852-.375 3.523-.153 5.477.301 6.45.602 6.6 1.949 13.802 3.523 18.222 2.625 11.403 84.153-19.125 45.375-108.079 7.199-21.671 8.926-28.5 4.273-14.852 3.602-13.8 2.472-11.4 1.5-12.073 1.051-15.602.602-18 .296-18.898v-18.528l-.375-16.875-.671-13.875-.903-9.597-7.648-46.278-2.778-9.375L537.602 192l-1.954-7.574-1.796-15.074Zm0 0"/><path style="stroke:none;fill-rule:nonzero;fill:#5aa07b;fill-opacity:1" d="M369.977 607.648 390 591.75l20.773-15.074 16.125-10.653 16.727-9.898 8.324-4.352 11.102-4.949 34.5-13.125 11.398-4.05 16.278-5.098 18.222-4.653 9.903-2.023L564.074 516l10.801-1.5 11.7-1.2 12.675-.823 19.426-.454 22.05.602 22.797 1.8 25.801 3.15-.597 1.652-4.125 6.449-14.176 19.426-12.977 16.574-14.847 18.148-16.051 18.45-8.25 9.078L602.1 624l-7.726 7.2-5.176 4.5-9.3 7.35-15.75 10.65-8.547 5.175L537.523 669l-9.375 4.727-19.796 8.921-10.125 4.125-10.352 3.829-10.574 3.597-10.875 3.375-10.875 3-11.028 2.7-11.171 2.328-11.329 1.949-10.046 1.426-8.926.898-7.875.45-7.95.152-6.902-.153-5.926-.375-11.097-1.5-4.278-.898-6.074-1.727-4.426-1.648-3.824-1.727-5.176-3.074-.523-.602-3-6.824-2.477-6.676-6.75-20.324 12.75-44.176Zm0 0"/><path style="stroke:none;fill-rule:nonzero;fill:#0e7768;fill-opacity:1" d="m372.375 658.5-10.5 6.977-16.2 11.921-5.925 4.801-11.25 9.824-7.574 5.926-3.528 1.875-1.125-.074-.296-.898.671-2.403.903-1.722 3.898-6.454 1.727-2.25 3.676-3.375 7.5-6.074 12.449-9 20.926-13.8.148-12.598.75-10.727 1.426-12.074 1.05-6.148 1.422-5.926-.75 8.472-.222 10.125.148 10.278.676 15.676 16.125-9.602 16.727-9.375v-5.926l.671-9.676 1.727-12.222 1.426-6.676L411 590.25l3.375-9.523 2.176-4.801-3.153 13.5-2.324 14.55-1.05 13.723.226 11.477 38.023-20.102-.148-7.426.3-5.25 1.5-11.847 2.552-11.926 1.722-6.227 4.95-14.699-2.325 9.75-2.926 16.051-1.347 10.875-.676 7.95-.3 11.027 25.726-14.028 8.472-4.199.227-9 1.05-11.773 2.177-15 1.796-8.625-1.199 10.722-.824 10.727-.3 10.722.152 10.801 14.171-6.3 29.852-12 2.25-10.797 3.75-12.676 4.875-12.676 5.398-11.023-1.949 4.949-1.722 5.324-2.778 10.727-1.949 10.046-1.875 13.801 33.45-12.523 2.476-7.574 2.25-5.102 4.05-7.352 6-8.699 3.75-4.574 4.5-4.875-5.25 8.023-3.75 6.454-3.078 6.074-3.671 8.773-.829 2.852-.75 3.75 17.329-5.926 24.972-7.95 1.2-3.675 3.226-5.023 5.176-5.778 8.55-7.722-4.5 5.324-5.925 8.023-3.153 5.477-.75 2.25 40.653-12.528-35.7 12.079 2.774 3 2.55 2.171 4.052 2.778 6.75 3.523 4.574 1.95-4.2-.524-2.175-.602-6.227-2.625-5.472-3.222-6.602-5.102-33.602 11.926 6.153 4.95 5.25 3.675 7.648 4.875 12.227 6.75 7.8 3.824-5.25-1.125-2.925-.972-8.926-3.75-8.852-4.727-7.949-4.875-10.05-6.824L570 558.148l-23.25 9.375 8.926 6.829 7.426 5.023 10.796 6.75 17.028 9.602 11.023 5.625-8.472-2.625-4.352-1.653-6.375-2.773-6.3-3.153-6.223-3.296-11.176-6.602-12.602-8.398-4.574-3.301L513 581.699l-13.352 6.074 6.676 5.551 11.625 8.778 7.2 5.023 14.25 9.227 12.976 7.273 6.75 3.45 14.398 6.3-9-3.074-8.398-3.227-7.648-3.222-7.579-3.528-12.972-6.824-8.852-5.25-7.125-4.648-11.176-8.25-6.148-5.176-16.727 8.398-28.421 15.45 7.347 5.328 5.778 3.75 8.171 4.949 9.301 5.023L492 639l8.398 3.824 20.551 8.477-8.023-2.176-7.5-2.398-7.2-2.551-13.578-5.625-14.699-7.278-7.125-3.972-11.25-7.051-5.926-4.2-28.046 15.524 65.847 46.727-12.898-7.426-14.176-8.55-27-16.95-16.875-10.95-17.25 9.973-17.023 10.352 4.574 5.55 4.05 4.427 6.376 6.222 10.347 9.074 13.95 10.727 8.328 5.773 9.597 6.227-9.898-4.352-4.875-2.546-7.051-4.125-6.75-4.426-6.375-4.5-11.398-9-12.301-10.95Zm0 0"/><path style="stroke:none;fill-rule:nonzero;fill:#89c065;fill-opacity:1" d="m70.95 492.676.3-.903.824-1.199 1.5-1.426L76.2 487.2l3.824-2.176 8.852-3.972 9.898-3.301 4.954-1.125 7.5-.977 4.648.375 1.95.676 2.25 1.125 2.402 1.727 3.449 3.074 7.199 8.102 14.852 19.199 2.546 2.472.676.301.602-.148.523-.602.528-1.426.296-2.472-.074-3.824-.523-4.051-1.051-4.95-2.176-6.75-3.375-7.05-2.097-3.45-2.477-3.453-2.773-3.222-3.153-3-3.523-2.778 3.449-2.398 6.074-2.7 4.278-1.35 8.921-2.024 8.852-1.125 4.05-.227 3.45.074 3.074.375 2.028.528 1.722.972 1.875 1.5 4.051 4.727 3.977 6.375 3.449 7.352 2.847 8.25.977 4.199 3.602 22.8 2.171 10.126 2.028 5.847.75 1.426.75.75.375.148.449-.375.523-1.046 1.278-5.403 1.05-8.097.672-9.676.153-14.7-.676-8.101-.602-2.852-1.046-3.074-1.727-3.597-4.574-7.352-5.324-7.2-10.204-12.152 18.75 1.051 21.153 1.574 8.625.977 5.472.977 5.625 2.097 3.153 1.653 3.375 2.097 4.125 3.45 3.597 4.351 1.5 2.55 1.204 2.774.824 2.926.449 3.3.074 3.598-.375 5.625-5.398 41.329-.375 8.023.75 9.148 1.125 4.426.75 1.426.972 1.2 1.125.823 1.426.375.903-.074 1.125-.523 1.574-1.278 2.097-2.324 2.551-3.449 2.324-3.898 2.25-4.727 2.625-6.824 1.801-7.5.528-3.824.222-3.903-.074-5.023L279.227 498l-3.454-18.602-5.023-21.074 37.875 23.176 18.3 11.7 5.4 3.75 8.027 5.925 2.097 1.95 1.875 2.1 1.5 2.473.75 1.727.903 4.574.148 2.403-.602 6.449-.898 5.398-3.074 11.852-1.95 6.148-2.328 6-2.546 5.778-2.778 5.472-3 4.95-2.176 3.078-2.25 2.699-7.574 7.426-6.523 7.046-1.574 2.176-1.051 1.95-.227 1.05.153.301 1.347.602 1.653.148 2.546-.227 2.778-.75 3.597-1.347 2.329-1.278 5.546-3.75 2.704-2.324 6.148-6.449 3.824-4.727 3.301-4.5 5.398-8.546 2.329-4.426 1.875-4.278 1.5-4.199 1.199-4.05.898-4.2.528-4.199.222-4.2-.074-4.124.977.375 1.199.898 1.574 1.727 2.102 2.926 2.398 4.273 2.25 4.727 2.25 5.546 1.95 5.778 1.573 6.3 1.426 8.473.45 11.176-.075 6.375-.449 5.852-1.352 8.546-2.324 7.727-1.5 3.676-1.875 3.597-2.176 3.454-2.472 3.375-2.778 3.222-5.171 4.801-3.903 2.926-8.625 4.949-1.949 1.5-.227.45.903 10.124.222 9.45-.222 5.328-1.278 9.449-2.097 7.722-1.352 3.75-1.722 3.602-2.102 3.523-2.324 3.301-2.852 3.153-3.222 2.847-7.204 5.625-7.273 5.25-5.023 3.301-5.25 3-5.551 2.773-8.625 3.454-4.727 1.421-4.949 1.204-4.95.824-5.323.676-5.778.296h-6.148l-6-.296-6.602-.676-7.125-1.051-7.722-1.574 5.398-3.602 9.824-7.574 4.352-3.977 5.55-5.546 5.024-5.551 4.352-5.477 4.046-5.847 3.454-5.477 2.847-5.324 2.477-5.477 1.949-4.949 1.352-4.574.75-3.528.449-3.148v-5.176l-.45-2.55-.75-1.95-.976-1.574-1.2-1.2-.902-.527-1.046-.148-1.125.148-1.426.602-1.653 1.125-4.199 4.2-7.05 9.152-20.399 30.671-8.55 11.778-4.126 5.023-5.472 5.625-2.551 2.028-3.903 2.398-3.375.977-3 .074-3.296-.375-3.75-.75-7.579-2.403-4.199-1.722-6.148-2.926-6.375-3.523-6.227-3.903-6-4.125-5.773-4.426-5.176-4.421-4.875-4.5-3.898-4.278-2.329-2.926-3.148-5.023 2.625.45 3.227.152 3.824-.227 8.097-1.273 4.801-1.204 7.051-2.023 7.648-2.625 7.579-3 15.148-6.824 6.977-3.602 6.671-3.75 5.704-3.597 3.671-2.551 5.403-4.352 2.176-2.324 1.347-1.95.75-1.573.676-3.977-.45-2.55-.6-.9-.825-.675-1.426-.602-1.8-.296-3.825.222-5.847 1.653-32.102 20.324-12.148 6.898-11.704 5.778-3.75 1.5-6.449 2.097-3.222.602-3.079.222-2.921-.148-2.852-.45-3.676-1.05-3.449-1.426-3.375-1.875-3.074-2.176-2.926-2.398-2.625-2.625-3.676-4.125-3-4.125-2.55-4.125-8.098-16.125L99 614.477l-1.273-4.125-.602-2.852-.3-5.398 1.652.898 5.398 1.2 9.375 1.198 5.625.375 11.625.301 5.852-.074 5.398-.375 5.25-.676 4.2-.898 11.698-3.375 5.403-1.875 4.426-1.875 2.699-1.574 2.023-1.426 1.426-1.5.824-1.278.375-1.273v-1.352l-.375-1.5-.523-.824-.824-.676-1.278-.523-1.722-.375-5.25-.227-3.602.301-11.926 1.574-27.523 4.5-6.75.829-6.074.375-8.477-.227-5.926-.898-3.972-1.352L93 587.55l-2.102-2.698-5.023-9.829-2.926-7.648-1.347-4.5-2.403-10.352-.75-5.472-.3-3.75v-7.352l3.527 3.227 2.398 1.648 3.903 2.102 4.5 2.023 4.796 1.727 10.125 2.625 4.954.824 4.796.523 4.278.153 5.023-.375 1.875-.45 1.727-.675 1.125-.903.75-.972.222-1.875-.824-1.278-.972-.671-3.301-1.051-3.074-.528-15.676-1.574-6.074-1.273-3.75-1.574-2.403-1.579-5.773-4.648-5.625-6-2.926-3.75-2.55-3.898-2.325-4.278-2.176-4.722-1.273-3.676-1.875-7.95Zm0 0"/><path style="stroke:none;fill-rule:nonzero;fill:#277349;fill-opacity:1" d="m418.2 719.398-2.25-3.597-3.524-4.95-3.977-5.101-5.023-5.852-11.477-12.375-12.75-12.597-9.75-8.7-17.625-15-8.847-8.55-4.579-3.676-11.773-8.102-14.926-9.296-16.949-9.977 2.477 12 1.796 13.648.829 9 .296 5.926-.074 5.7-1.125 10.8-1.875 9.45-1.8 6.601-1.723 5.176-1.875 4.722-2.625 5.852 2.023-7.05 2.477-11.927 1.5-13.199.222-12.148-.222-6.375-.676-6.528-1.05-6.898-3.15-15.074-2.476-9.528-1.875-5.171L257.551 591l.3 5.926-.078 3.75-.449 4.574-.824 4.727-1.273 5.546-1.875 6.079-1.954 5.398-2.25 5.102-2.546 4.949-6 10.05-7.426 11.325-6.375 8.472-3.676 4.125-7.648 7.954-10.278 9.597-6.449 5.477 6.523-6.375 6.227-6.602 6-6.824 5.7-7.125 5.476-7.352 6.222-9.074 5.102-8.324 4.5-9.074 2.102-5.102 3.671-11.023 1.204-4.875 1.648-9.301.75-8.023.3-5.852-8.1-4.352-4.2 4.125-3.148 2.704-8.477 6.449-5.023 3.375-5.25 3.222-5.551 3-7.5 3.301-8.926 2.778-18.375 4.574-12.3 2.625-20.927 4.125 20.704-5.477 18.671-5.699 12.454-4.426 10.648-4.648 3.977-2.25 4.796-3.074 9-6.75 8.329-7.653 3.898-4.125-18.227-9.523-27.222-15.602-14.028 5.102-11.324 3.222-6.3 1.426-6.598 1.2-6.75.828-6.676.375h-9.227l-7.875-.301-13.199-1.125-11.55-1.727 10.351.602 17.023.222 13.352-.597 6.602-.602 7.421-1.05 6.75-1.348 6.454-1.574 10.648-3.375 3.977-1.653 5.472-2.847-109.426-64.125 75.079 39.972 21.824 11.926.375-1.95.222-3.675-.222-9.074-1.95-22.352-2.402-20.023 3 12.148 1.2 5.926 2.328 14.926.898 8.472.45 8.704.073 9.074 41.25 22.5 1.875-4.051 3.903-10.05 2.25-8.024.597-3.903 1.278-13.722.222-7.801-.148-8.477-.45-5.699-.675-5.699-1.125-5.852-1.352-5.171-1.796-5.403-2.028-5.25-4.5-9.676-6.824-12.296 5.926 7.574 2.472 3.676 2.704 4.347 2.472 4.653 2.176 4.875 1.875 5.171 1.574 5.704 1.352 5.921 1.949 12.454.602 6.375.449 12.222-.227 4.352-.523 4.8-.824 4.95-2.25 9.972-5.102 17.25 40.648 22.051L270 588.45l2.477-2.023 4.949-5.176 4.722-6.3 3.227-5.25 3.074-5.552 2.778-5.773 4.574-11.398 1.648-5.25 1.352-5.102.75-4.273.375-4.278.3-10.426-.374-16.5-1.278-18.898 2.028 9.977.75 4.796 1.273 12.153.227 6.898-.079 6.977-.523 7.273-1.5 9.676-1.125 4.727-3.602 10.199-2.023 4.722-3.375 6.829-3.45 6-6.902 10.125-3.148 4.125-5.324 6.148 26.023 14.102 9.301-.079 8.926-.824 4.648-.75 4.574-1.125 4.204-1.5 3.824-1.949 3.972-2.477 7.352-5.699 6.148-5.773 5.852-6.153-2.477 4.278-2.773 4.05-3.074 3.825-3.301 3.523-3.602 3.301-3.898 3.074-2.398 1.5-5.329 2.551-4.347 1.426-4.352 1.125-8.398 1.347-6.977.528 7.653 4.347 8.546 5.176 8.625 5.625 17.926 12.45 8.778 6.453 16.796 13.125 14.625 12.296 6.602 6.227 6.148 6.375L412.273 696l8.477 11.176 7.426 10.949Zm0 0"/></svg>