<svg xmlns="http://www.w3.org/2000/svg" width="1024" height="1024" viewBox="0 0 768 768"><defs><linearGradient id="a" gradientUnits="userSpaceOnUse" x1="0" y1=".401" x2=".898" y2=".581" gradientTransform="matrix(437.40234 0 0 349.72656 101.398 391.648)"><stop offset="0" style="stop-color:#81b154;stop-opacity:1"/><stop offset="1" style="stop-color:#4aa077;stop-opacity:1"/></linearGradient></defs><path style="fill:#fff;fill-opacity:1;stroke:none" d="M0 0h768v768H0z"/><path style="stroke:none;fill-rule:nonzero;fill:#00534e;fill-opacity:1" d="m375.898 341.023-22.273-32.847-15.375-21.824-18.148-25.051L300 234.523l-10.648-13.574-21.829-27-11.023-12.824-11.102-12.45-10.722-11.402-7.352-7.347-13.648-12.75-6.903-5.852-6.449-5.023-6-4.2L210.45 129l15.528 7.05 14.921 7.274 14.403 7.5 14.398 7.875 13.727 8.028 13.199 8.171 12.676 8.25 12.597 8.704 12 8.625 11.477 8.699 10.95 8.699 10.874 9.074 10.278 9 9.75 8.852 9.222 8.773 17.7 18.074 15.527 17.25 9.75 11.704 8.773 11.171L456 322.426l7.574 10.875 6.45 10.125 5.624 9.375 5.176 9.597 4.278 8.551 3.375 7.653 4.046 11.324 2.028 8.625.597 4.199.153 3.602-.153 3.074-.449 2.625-.75 2.55-1.05 2.25-1.2 1.797-1.426 1.5-3.449 2.403-4.273 1.426-3.074.449-3.227.222-3.523-.222-5.329-.676-5.472-1.125-5.403-1.574-9.972-3.45-12.75-5.777Zm0 0"/><path style="stroke:none;fill-rule:nonzero;fill:#bee3a2;fill-opacity:1" d="m10.727 313.95 2.546.152 3.528.523 4.949 1.273 7.648 2.329 9.829 3.375 22.273 8.847 25.574 11.102 27.301 12.676 27.523 13.5 26.102 13.5 12.227 6.671 21.222 12.227 8.477 5.25 9.449 6.602 6.523 5.398 2.25 1.2 2.778 1.05 3.75.898 4.426.676 10.273.45 11.55-.524 9-.977 18.9-2.847 9.226-1.801 17.25-3.75 14.324-3.523 13.352-3.602-8.102-6.602-7.125-5.171-8.25-5.551-11.176-6.903-17.097-9.375-10.579-5.25L270 360.898l-12-5.097-13.426-5.324-20.773-7.204-11.551-3.597-24.602-6.75-13.046-3.074-13.801-2.926-14.7-2.778-14.476-2.324-15.3-2.176-16.126-1.796-17.023-1.579-16.801-1.199-17.625-.75-18.523-.375Zm0 0"/><path style="stroke:none;fill-rule:nonzero;fill:url(#a)" d="m104.477 601.95 3.074 7.573 6.3 12.602 8.098 13.727 8.625 12.523 4.875 6.3 5.477 6.598 6.148 6.903 6.375 6.597 7.051 6.676 7.8 6.75 12.45 9.528 6.824 4.648 7.278 4.574 7.347 4.278 7.801 4.125 8.324 3.898 8.778 3.75 8.773 3.3 9.3 3.075 9.825 2.852 10.352 2.472 16.796 3.074 18.301 2.176 9.75.676 15.227.602 14.25.148 13.273-.227 12.301-.523 12.676-.898 11.773-1.204 10.801-1.421 10.05-1.653 10.2-2.023 18-4.352 15.977-5.023 13.875-5.403 13.796-6.597 6.676-3.75 5.7-3.45 9.976-7.124 8.324-7.125 5.102-5.625L538.8 534.148 375.75 514.352l-55.648-122.704-21.977 2.852-18.227 3.375-10.5 2.25-10.648 2.7-18.75 5.55-15.074 5.477-7.352 3.148-7.199 3.375-6.977 3.602-6.75 3.972-6.296 4.2-5.852 4.5 34.727 35.027 70.421 70.125-138.671-80.778-5.704 5.329-4.273 4.5-4.5 5.171-8.7 11.551-7.198 11.324-3.375 6.153L114 511.8 110.926 519l-2.028 5.55-3.523 11.848-1.426 6.375-1.125 6.375-.824 6.676-.45 6.903-.152 7.199.602.523 4.426 1.5 11.699 2.324 16.574 2.477 19.875 2.55 42.75 4.723 50.403 4.954Zm0 0"/><path style="stroke:none;fill-rule:nonzero;fill:#6eac8d;fill-opacity:1" d="M531.148 397.727 489.227 379.5l-3.903 17.773-5.25 20.329-.074 1.273.3 2.398 1.052 3.977 2.023 6.227 3.3 8.699 3.9 9.375 10.277 23.176 19.722 41.699 14.926 30.222 15.602 30.75 15.523 29.852L581.398 633l19.579 34.95 9.972 16.573 6.074 8.704 2.551 2.472 10.2 5.176 5.624 2.477 6.153 2.25 4.273 1.199 4.574.972 5.028.75 5.023.375 5.551.079 6.148-.375 7.278-1.352 3.824-1.125 3.898-1.574 5.028-2.403 5.023-3 5.102-3.523 4.8-3.824 4.575-4.278 4.5-4.722 4.125-5.028 3.824-5.324 3.45-5.699 4.425-8.926 1.8-4.648 1.575-4.727.75-3.3 1.648-10.5.977-9.297 1.5-24.153.602-14.176.671-30.597v-49.5l-1.046-48.977-1.352-29.625-.824-13.5-1.875-22.5-1.051-8.324-4.2 5.7-6.3 7.124-7.125 7.426-13.648 13.352 15.824-49.727 7.8-23.477-1.277-6.972-2.097-9.45-5.778-22.277-7.8-26.472-9.45-29.176-10.722-30.301-11.551-29.852-6.074-14.472-6-13.426-8.25-16.875-8.102-14.773-3.977-6.375-6.824-9.602-5.55-6.227-2.547-2.25-4.5-3.449-8.176-5.176L612 93.977l-3.75-1.278-3.523-.824-3.301-.45-3.074-.073-3 .222-3.75.75-3.528 1.125-3.449 1.574-3.375 2.102-3.074 2.324-3.074 2.7-3 3.152-2.926 3.523-3.602 4.875-3.523 5.403-3.45 5.847-4.8 8.926-3.977 8.324-3.449 8.102-5.176 13.875-1.722 5.398-3 11.028 33.523 46.5-17.324-10.653-17.778-10.5-6.148-3.375-2.102-.75-.824 4.352-6.3 25.125-23.172 89.472-2.477 10.278-.824 4.199 12.375 20.773Zm0 0"/><path style="stroke:none;fill-rule:nonzero;fill:#fff;fill-opacity:1" d="M654.602 732.227 645 605.926l-7.5-95.852L624.824 356.7l-8.25-90.523-3.75-37.125-3.375-29.551-2.847-20.398 1.125 1.574 1.273 2.398 1.426 3.45 3.375 11.101 3.898 17.398 2.7 14.926 5.703 37.278 2.921 21.597 5.551 46.653 5.403 50.699 5.097 52.949 4.875 53.55 8.324 101.25 6.227 81.677 3.824 54.375Zm0 0"/><path style="stroke:none;fill-rule:nonzero;fill:#bee3a2;fill-opacity:1" d="m414.602 556.2-44.176-19.052-3.903-13.273-9.222-32.926-5.477-20.55-8.097-32.25-4.579-20.547-1.796-9.301-2.704-16.426-.671-7.05-.079-5.177.676-13.199 1.2-8.097.902-3.602 1.199-3.45 1.574-3.073 1.801-2.704 1.574-1.875 1.875-1.574 2.102-1.426 2.472-1.199 2.477-.824 2.852-.676 3.375-.375 7.5.074 9 1.426 5.472 1.278 6.977 2.097 8.176 2.778 9.597 3.75 8.176 3.671 8.102 4.051 8.023 4.574 7.8 4.801 7.575 5.102 7.426 5.324 7.273 5.55 13.5 11.25 9.602 8.626 8.625 8.324 8.176 8.25 13.421 14.55 5.028 5.774 9.824 12.074 10.8 51.227 4.575-32.023 20.398 28.421L576 517.051l21.45 31.8 14.175 21.973 12.676 21 5.398 9.45 4.801 9.226 3.602 7.727 2.097 5.171 1.426 4.125.75 3.375 1.05 6.75.598 6.528.079 6.449-.153 4.8-1.273 9.075-.977 4.352-1.347 4.199-1.653 4.05L636.75 681l-2.324 3.676-2.551 3.449-2.926 3.227-3.3 3-3.75 2.847-3.899 2.477-4.273 2.176-4.875 2.023-5.329 1.727-6 1.421-6.75 1.278-7.421 1.05-7.5.672-7.875.301h-8.403l-8.398-.449-8.625-.898-8.926-1.426-6.602-1.352-6.597-1.648-6.676-1.95-6.676-2.25-6.523-2.624-6.45-2.926-6.374-3.375-6.375-3.676-6.079-4.05-5.847-4.427-5.778-4.949-5.625-5.324 1.727-1.8 4.5-3.9 25.727-20.175-51.75 6.074-15.301-19.426-14.028-19.273-9.375-14.25L391.2 582l-5.25-11.102-2.625-7.796Zm0 0"/><path style="stroke:none;fill-rule:nonzero;fill:#fff;fill-opacity:1" d="m619.727 714.227-231.75-321.454 1.5.903 2.324 1.949 3.597 3.523 5.329 5.852 14.847 17.625 29.324 37.125 22.5 29.625 24 32.023 48.977 66.227 43.95 60.45 43.948 60.902Zm0 0"/><path style="stroke:none;fill-rule:nonzero;fill:#00534e;fill-opacity:1" d="m676.05 685.352-1.948-28.653-.977-10.8-8.25 1.578-8.324.898-4.5.227-4.426-.153-4.273-.523-2.704-.528-4.648-1.875-2.25-1.5-1.574-1.421-1.051-1.426-.676-1.5-.3-1.426.152-1.426 1.125-2.699.972-1.273 1.875-1.653 2.403-1.347 2.55-1.051 2.7-.528 1.648-.074 4.2.676 7.05 2.55 7.278 3.45 10.5 6.074-1.954-15.074-2.472-15-2.852-14.852-3.375-14.847-7.426 1.8-8.546 1.348-4.653.45-4.722.078-4.579-.301-2.921-.45-2.625-.75-2.329-1.05-2.324-1.426-1.648-1.352-1.051-1.347-.75-1.5-.3-1.426.073-1.426.977-2.699.977-1.352 1.875-1.648 2.25-1.5 2.546-1.125 2.704-.676 1.648-.074 4.352.602 7.273 2.324 7.5 3.375 10.574 5.625-3.597-13.426-3.977-13.2-4.426-13.05-4.8-12.898-5.25-12.829-7.348 4.204-7.574 3.523-8.329 2.926-4.125.898-5.324.375-2.398-.3-2.7-.672-1.953-.829-1.347-.972-1.2-1.2-.675-1.277-.375-1.347.148-2.926.602-1.574 1.199-2.102 1.8-2.102 2.098-1.796 2.403-1.426 1.5-.602 4.199-.676 7.5.079 8.023.972 11.926 2.25-5.25-11.398-5.625-11.25-5.926-11.102-6.222-10.8-6.602-10.723-9.074 7.426-3.602 2.546-4.046 2.551-4.204 2.25-4.199 1.801-2.847.977-2.778.523-2.55.148-2.7-.222-2.097-.528-1.5-.671-1.352-.977-.977-1.125-.597-1.273-.301-2.926.3-1.574.825-2.403 1.352-2.324 1.796-2.102 2.102-1.875 1.273-.75 3.676-1.347 3.153-.75 7.347-.824 10.801-.301 7.95.3-6.598-9.75-6.903-9.601-7.199-9.3-7.426-9.15-7.722-8.925-8.102-8.625-8.25 8.102-3.375 2.847-3.824 2.926-4.051 2.625-4.05 2.25-2.774 1.125-2.7.824-2.55.375h-2.7l-2.101-.3-1.648-.524-1.426-.898-1.051-1.051-.676-1.2-.597-2.851.148-1.648.676-2.403 1.125-2.472 1.574-2.25 1.95-2.028 1.425-1.05 4.125-1.797 7.8-1.875 8.4-1.125 11.55-.75-9.074-9.079-9.375-8.699-9.602-8.398-9.898-8.102-10.2-7.722-8.101 7.949-7.273 5.847-4.051 2.704-4.125 2.25-2.852 1.199-2.699.824-2.55.375h-2.774l-2.102-.3-1.574-.524-1.426-.903-1.05-1.046-.672-1.204-.602-2.847.148-1.653.602-2.398 1.2-2.477 1.573-2.25 1.954-2.023 1.273-.977 3.75-1.722 7.2-1.801 7.8-1.2 12.227-.902-18-12.296-9.602-6 .3-1.352.677-1.2 1.046-.902 1.051-.449h.75l.602.375 1.05 1.125L495 331.125l13.05 9.148-.448-16.421-.75-12.153.222-2.847.45-1.579 1.05-2.25L510 303l2.398-2.176 2.704-1.273 1.421-.227 1.426.074 1.352.454 1.347.824 1.426 1.347 1.2 1.653 1.124 2.25 1.125 3.148.75 3.301.301 3.227-.148 3.074-1.2 5.926-1.05 2.699-1.875 3.898-2.102 3.45-2.324 3.078-5.398 5.773 9.972 7.727 9.75 8.023 9.45 8.324 9.152 8.551 9 8.852-.528-16.426-.671-11.778.222-2.847.45-1.574 1.05-2.25 2.625-3.227 2.551-1.727 1.352-.523 1.421-.227 1.426.079 1.352.375 1.347.898 1.426 1.352 1.2 1.648 1.124 2.25 1.125 3.148.75 3.528.301 3.3-.148 3.223-.602 3.153-.824 3-1.125 2.847-2.102 3.977-2.25 3.449-2.398 3.148-5.102 5.25 8.778 9.528 8.472 9.676 8.25 9.972 7.875 10.2 7.579 10.5-.454-12.524-.671-11.852.222-2.921.45-1.579 1.05-2.171 2.625-3.227 2.477-1.8 1.426-.524 1.421-.227 1.426.074 1.352.454 1.347.824 1.426 1.426 1.2 1.574 1.124 2.324 1.125 3.074.75 3.301.301 3.074-.074 3-1.2 5.778-.902 2.699-1.796 3.824-2.102 3.375-4.273 5.625-3.375 3.523 6.597 10.278 6.375 10.426 6 10.574 5.7 10.8 5.402 10.95 2.625-12.375 2.25-12 .972-2.778.829-1.347 1.574-1.95 3.222-2.476 2.926-1.125 1.5-.148 2.778.523 1.199.75 1.125 1.2 1.05 1.652.75 1.875.524 2.472.375 3.301-.074 3.227-.45 3.074-.75 2.847-1.124 2.704-2.852 4.875-2.625 3.222-2.7 2.852-5.402 4.347-4.273 2.704L648.449 519l4.95 12.676 4.5 12.75 4.124 12.898 3.676 13.125 4.426-12 3.977-11.926 1.273-2.546 1.05-1.278 1.802-1.648 3.597-2.028 3-.671h1.5l1.352.296 1.347.602 1.051.898.977 1.352.824 1.8.45 1.95.226 2.55-.153 3.302-.523 3.296-.898 3.079-1.278 2.773-3.3 4.95-1.876 2.175-3.222 2.852-3.153 2.398-6.148 3.523-4.352 1.954 2.625 11.699 2.403 11.699 2.023 11.773 1.727 11.852 1.426 11.926 6.375-10.875 5.699-10.574 1.722-2.403 1.278-1.05 2.023-1.274 2.324-.977 1.579-.449 3.074-.148 1.5.3 1.273.524 1.2.898.902 1.051.75 1.426.449 1.95.148 1.948-.296 2.551-.676 3.301-1.051 3.074-1.352 2.7-1.648 2.476-1.875 2.25-4.2 3.75-3.448 2.324-3.454 1.801-6.523 2.477-4.95 1.273.973 12.898 1.051 27.375-1.199.375-1.5-.148Zm0 0"/><path style="stroke:none;fill-rule:nonzero;fill:#dfad2e;fill-opacity:1" d="m432.824 306-2.847 1.5-3.528 3-1.574 2.023-1.352 2.329-.972 3.597-.074 1.95.222 2.027.676 2.176 1.2 2.398 1.5 2.25 2.1 2.398 2.927 2.778L435 337.5l3.75 2.398 3.523 1.875 3.375 1.352 3.301.824 2.852.375 2.847.074 2.852-.296 2.926-.602 2.926-1.05 3-1.348 3.222-1.954 3.375-2.472 3.528-3 3.75-3.75 3.972-4.5 4.125-3.977 3.153-4.5 1.574-3.3 1.273-3.45.824-3.597.454-3.75.148-3.75-.3-3.75-.598-3.75-.903-3.676-1.273-3.528-1.653-3.449-1.875-3.222-2.171-2.926-1.954-2.102-1.949-1.722-4.125-2.551-2.926-1.278-2.921-.75-2.852-.375-2.852-.074-2.625.375-2.398.676-2.25 1.05-1.8 1.274-1.427 1.574-.824 1.352-.523 1.5-.227 1.648.153 3.829-.375 2.097-.75 2.25-2.403 4.278-4.273 5.324-2.926 3-5.7 5.023Zm0 0"/><path style="stroke:none;fill-rule:nonzero;fill:#f8d57c;fill-opacity:1" d="m431.102 278.625 1.199-1.273 2.097-1.653 2.477-1.426 5.324-2.171 5.028-.75h2.625l2.773.375 2.852.75 2.773 1.199 2.926 1.722 3 2.329L468.3 282l4.347 6.3 3.153 5.552 4.199 9 2.625 7.949.676 3 .597 4.426.079 3.148-.301 2.773-.824 3.079-4.5.597-7.352.227-4.574-.227-4.801-.676-5.25-1.125-6.977-2.472-3.597-1.801-3.45-2.023-3.374-2.477-3.375-2.926-5.102-5.699-3.074-4.8-1.5-3.302-.903-2.921-.375-2.551v-2.7l.301-2.328.602-2.171 1.273-3 1.426-2.477Zm0 0"/></svg>