<svg xmlns="http://www.w3.org/2000/svg" width="256" height="256"><defs><linearGradient id="a" gradientUnits="userSpaceOnUse" x1=".838" y1=".242" x2="0" y2=".783" gradientTransform="matrix(36.55078 0 0 26.17578 140.523 75.426)"><stop offset="0" style="stop-color:#fff4aa;stop-opacity:1"/><stop offset="1" style="stop-color:#f9c879;stop-opacity:1"/></linearGradient></defs><path style="fill:#fff;fill-opacity:1;stroke:none" d="M0 0h256v256H0z"/><path style="stroke:none;fill-rule:nonzero;fill:#1c7829;fill-opacity:1" d="m193.05 41.352-9.675 1.875-3.398.796-3.926 1.079-2.676.824-5.852 2.125-2.972 1.222-3.102 1.426-3.222 1.653-4.778 2.699-2.472 1.55-4.903 3.45-2.449 1.898-2.45 2.051-2.5 2.227-2.374 2.273-2.352 2.477-2.375 2.625-2.375 2.847-2.222 2.875-2.227 3.074-2.176 3.301-2.176 3.528-1.847 3.324-1.375 2.699-.95 2.148-.652 1.75-.398 1.403-.2 1.125-.05.875.05.75.149.625.25.472.3.375.376.301.574.25.676.153.847.023 1.028-.125 1.324-.273 1.55-.477 1.802-.7 3.699-1.75 5.199-2.902 3.324-2.023 6.676-4.352 6.45-4.5 5.8-4.222 8.95-6.852 3.675-5.176 4.3-5.625L175 62.676l7.676-9.278Zm0 0"/><path style="stroke:none;fill-rule:nonzero;fill:#d6f4df;fill-opacity:1" d="m141.3 76.352 2.723-3.602 3.278-3.727L149.324 67l2.403-2.2 3.523-2.823 1.977-1.403 2.023-1.3 2.148-1.223 2.278-1.153 3.55-1.449L171 54.352l-2.95 2.421-2.698 2.403-4.852 4.75-2.148 2.273-3.5 3.977L151.05 75Zm0 0"/><path style="stroke:none;fill-rule:nonzero;fill:#82d898;fill-opacity:1" d="m204.398 93.352-1.171.125-4.227.796-9.3 2.25-14.927 4.051-24.472 7.074 7.625 24.528 8.648-8.125 5.7-5.2 6.453-5.703 6.824-5.847 6.824-5.528 3.324-2.546 5.153-3.653Zm0 0"/><path style="stroke:none;fill-rule:nonzero;fill:#64cb83;fill-opacity:1" d="M80.648 190 76.7 176.125l-2.523-9.477-2.801-11.074-2.875-12.222-2.7-12.852-1.25-6.5-1.124-6.477-1-6.449-.852-6.199-.449-4.125-.625-7.676 11.426 9-8.801-12.426-3.977-5.75-.25-15.324.028-8.722.176-5.477.171-2.398.477-4.028.25-1.125.5-1.398.574.523 1.352.977 3.5 2.398-4.352-10.199L62.75 35.5l1.5-3.824 2.102-4.551 1.25-2.375 1.421-2.426 2.125-3.125 2.375-2.926 1.278-1.324 1.347-1.199 1.079-.852 1.074-.75 2.3-1.25 1.172-.472 1.25-.375 1.278-.25 1.3-.153 1.723-.023 1.602.074 1.472.153 2.727.597 1.273.426 2.227.977 1.398.824 1.227.847 1.102.903 1.023.972 1.648 1.903 1 1.449.75 1.227.625 1.171.653 1.579-6.176 14.75 8.926-2.352 2.199-.676 1.352 4.95 1.5 6.374 1.5 7.352.699 3.898 1.273 8 .5 3.954.75 7.574.176 3.574.05 3.148-.073 2.079-.352 3.347-1.074 4.528-1.2 6.5-1.3 7.949-1.324 8.926-2.551 18.699-3.528 28.097Zm0 0"/><path style="stroke:none;fill-rule:nonzero;fill:#fff;fill-opacity:1" d="m83.648 142.574-.398-14.75-.125-10.273.023-18.778.227-14.199.523-15 .852-15.273.574-7.602.676-7.55.773-7.325L88 52.375l1.352 25.574 3.097 62.875Zm0 0"/><path style="stroke:none;fill-rule:nonzero;fill:#7ab141;fill-opacity:1" d="m139.398 137.398 9.977-3.796 6.375-2.227 7.102-2.25 7.273-2 3.625-.852 3.352-.648 2.25-.375 3.921-.352 1.875-.023 1.602.125 1.352.227-13.977 13.222 33.375-10.074 5.926 2.574 6.222 2.824 2.227 1.153.75.472.2.204-.126.375-.273.324-1.227 1.074-1.648 1.2-3.5 2.277 13.972-1.051 1.454 1 2.148 1.824 1.227 1.273 1.523 2 .75 1.176.648 1.25.579 1.352.472 1.472.45 2.301.101 1.278.023 1.347-.074 1.324-.222 1.403-.329 1.5-.472 1.597-.477 1.176-.625 1.2-.824 1.277-1 1.347-1.426 1.653-1.676 1.699-1.921 1.773-4.204 3.403-4.773 3.375-5.102 3.222-3.921 2.301-3.926 2.176-7.602 3.875-6.773 3.102-5.352 2.148-2.097.7-1.204.3-.074-.125-1.05-6.148-1.422-9.676-6.625 18.648-2.875 1.352-2.778 1.074-3.222 1.125-4.602 1.45-3.273.902-8.602 2.125-4.7 1.023-5.448 1.074-6.278 1.102-6.3 1-7.149 1.023-8.05 1.028-2.15.199-1.925.074-1.676-.023-1.5-.125-1.3-.176-1.376-.352-1.199-.398-1.023-.477-.875-.55-.727-.598-.676-.727-.574-.773-.449-.852-.375-.949-.25-1-.148-1.3-.051-1.376.097-1.55.278-1.672.347-1.602 1.102-3.523 1.824-4.454 1.278-2.625L103.05 186l3.199-5.5 4.574-7.102 2.95-4.199 6.027-8.176 5.898-7.523 5.352-6.477 4.347-5.097Zm0 0"/><path style="stroke:none;fill-rule:nonzero;fill:#f7ffee;fill-opacity:1" d="m137.898 170 3.204-1.5 5.671-2.426 8-3.05 4.903-1.672 7-2.125 3.926-1.079 8.097-1.921 4.403-.875 4.421-.801 4.579-.676 4.75-.574 7.222-.602 7.477-.25 3.773.028 3.801.125 3.852.222 3.898.352-4.25.023-4.2.125-4.124.25-4.051.352-8.023 1-7.653 1.324-5.05 1.05-4.825 1.15-4.625 1.25-4.597 1.35-4.329 1.376-4.097 1.426-4.051 1.472-7.227 2.903-5 2.199-4.25 2-3.898 1.949-5.727 3.074-3.199 1.875Zm0 0"/><path style="stroke:none;fill-rule:nonzero;fill:#aed882;fill-opacity:1" d="m136.023 76.75-2.273.773-1.824.75-1.977.926-2.5 1.324-3.55 2.153-4.024 2.875-2.102 1.676-2.222 1.949-2.125 2.023-2.176 2.278-2.273 2.546L107.375 98l-3.227 4.426-1.648 2.472-1.5 2.5-1.5 2.676-1.5 2.875-1.45 3.074-1.573 3.676-1.5 3.824-1.426 3.954-1.301 4-1.2 4.074-1.124 4.125L86.449 148l-.875 4.148-1.148 6.227-.977 6.05-.824 6-.676 5.626-.55 5.5-.7 9.8-.25 7.973.125 5.676.153 1.676.25 1.449.398 1.523.5 1.551 1.3 3.074.774 1.551 1.301 2.227 1.375 2.125 1.5 2 2.523 2.898 1.926 1.778.977.773 1.625.926.898.324.903.227.949.097.972.028.977-.102.977-.2 1.046-.323 1.102-.5 1-.551 1.074-.727 1.125-.875 1.176-1.074 2.2-2.426 2.402-3.273 2.574-4.102L123 200.676l10.852-19.25 5.546-10.2 5.25-9.874 4.653-9.051 3.722-7.727 1.5-3.347 7.153-17.977 1.574-4.2 2.426-7.198 1.574-5.727.625-2.898.477-2.801.347-2.75.153-2.074.046-2.028-.074-1.949-.148-1.898-.301-1.875-.426-1.829-.574-1.722-.7-1.7-.75-1.402-.8-1.25-.898-1.074-.926-.95-1.051-.85-1.102-.75-1.125-.626-1.171-.523-1.653-.551-1.676-.398-1.722-.25-1.727-.125-1.722-.028-1.704.074-2.523.25-2.324.375-4 .977Zm0 0"/><path style="stroke:none;fill-rule:nonzero;fill:#f7ffee;fill-opacity:1" d="m148.898 84.75-3.273 3.95-3.2 3.976-3.1 4.05-3 4.098-2.927 4.176-5.574 8.375-2.625 4.227-3.426 5.722-3.25 5.653-3.074 5.625-2.949 5.699-2.773 5.574-5.125 10.95-4.477 10.402-3.977 10-4.097 11.398-1.977 6-1.773 5.727-1.352 4.722-1.125 4.403-.722 3.25-.403 2.074-.472 3.847-3.602 18.278-.523 3.523.023.324.45.579.874.574.528.199.546.102.727-.125.648-.426.278-.375.25-.528 1.148-4.824 1-4.773 1.602-8.125 2.074-7.5 2.602-8.676 3.597-11.273 4.625-13.403 2.625-7.25 2.95-7.773 3.152-7.903 3.426-8.273 4.875-11.125 5.347-11.352 5.75-11.296 3.028-5.625 3.148-5.551 3.227-5.477 3.347-5.398 3.426-5.278Zm0 0"/><path style="stroke:none;fill-rule:nonzero;fill:#1c7829;fill-opacity:1" d="m55.574 231.824 1-4.597 1.625-6.875 2.301-8.75-1.426-1.579-1.8-2.296-1.922-2.653-3.102-4.597-.5-.977-.477-1.25-.375-1.324-.25-1.477-.097-2 .222-2.023.25-.95.352-.925.45-.852.573-.8.704-.7 1.046-.8.926-.547.824-.352.778-.148.648-.051.625.074.574.176.551.273.528.375.574.574.55.704.5.898.473 1.074.352 1.2.324 1.476.227 1.523.273 3.25.074 6.125 3.778-11.949 2.148-6.273 2.398-6.574-1.546-1.278-1.028-1-2.023-2.347-1.602-2.426-.699-1.352-.648-1.472-.579-1.625-.324-1.25-.449-2.704-.102-1.5.028-2.222.148-1.95.25-1.675.403-1.676.449-1.426.5-1.199.625-1.148.625-.954.648-.773.727-.7.676-.527.648-.375.7-.296.624-.153.551-.023.477.074.5.227.5.398.546.625.852 1.45.824 2.124.403 1.528.347 1.773.227 2.05.125 2.024-.051 2.227-.676 7.676-.199 3.421 2.398-5.875 2.579-5.921 3.671-7.829 1.926-3.875-2.25-4.5-1.426-3.472-.671-1.926-.579-1.977-.472-2.023-.278-1.977-.097-1.324.023-1.222.125-1.204.7-3.074 1.027-2.875.574-1.3L82.352 119l1.375-1.926 1.421-1.523.625-.5.704-.426.546-.2.477-.05.574.074.574.2.551.328.551.449.875 1.176.398.796.329.926.398 1.95.102 1.175-.102 2.528-.648 4.972-.625 3.75-1.375 6.778 2.347-4 2.426-3.852 2.5-3.75 2.602-3.676 2.671-3.5 2.727-3.324-.352-4.625-.074-4.074.227-4.653.273-2.421.403-2.352.824-3.05.5-1.4.625-1.35.722-1.223.801-1.102L109.352 90l1.75-1.574.75-.5.847-.45.75-.277.676-.125h.574l.602.125.55.2.473.3.426.426.477.648.347.801.278.977.125.972v1.102l-.125 1.2-.301 1.277-.477 1.574-1.324 3.472-1.648 3.704-1.778 3.625-1.648 3.171 2.222-2.097 2.278-1.977 2.3-1.824 2.325-1.727 2.426-1.625 2.449-1.472 2.472-1.324 2.551-1.176 2.051-.852 2.102-.75 2.125-.648 2.171-.551 2.176-.45 1.903.575 1.097.45.625.323.477.454.05.222-.05.176-.574.375-1.079.273-1.097.051-2.5.477-2.45.625-2.402.75-2.375.898-2.324 1.028-2.273 1.148-2.25 1.273-2.227 1.403-2.148 1.472-2.125 1.602-2.102 1.727-2.05 1.824 5.1-.574 3.25-.25 3.098-.079 1.375.079 1.051.148 1.278.324 1.148.45 1 .55.7.5.573.574.528.625.398.727.324.75.204.852.097.949-.023 1.074-.153.852-.222.773-.324.7-.454.652-.546.597-.602.5-.727.477-.796.375-.926.347-1.074.278-1.278.199-1.449.074-1.625-.023-1.824-.2-1.75-.3-1.75-.477-3.426-1.222-3.102-1.426-2.574-1.375-1.8-1.074-4.2 5.074-2.05 2.676-2 2.796-2.575 3.801-2.472 3.95-2.426 4.078 3.676-2.704 2.523-1.699 2.602-1.597 1.273-.704 1.102-.523 1.347-.45 1.403-.1 1 .05 1.023.176 1 .273 1.2.602.527.426.449.472.347.574.278.653.125.722.023.829-.125 1.023-.25.977-.426 1.171-.671 1.375-.727 1.204-1.5 2-.8.796-1.15 1-1.152.829-1.171.671-1.204.551-2.25.778-1.625.347-1.347.176-2 .074-1.051-.097-1.3-.278-1.302-.426-1.347-.546-.852-.477-1.472-1.125-2.477 4.898-2.375 5-2.273 5.028-2.125 5.05 4.074-3.5 2.648-1.976 1.375-.898 1.278-.704 1.625-.648.648-.148 1.727-.028 1.898.301 1.824.676.875.472.801.551.727.625.625.727.472.8.375.876.176.699.102.75-.028.8-.125.899-.5 1.426-.972 1.597-.829 1.028-1 1.05-1.199 1.098-1.273 1-1.426.977-1.574.972-1.653.852-1.75.8-1.847.723-1.903.579-1.972.5-2.051.347-1.55.176-3.177.05-1.597-.1-2.278 6.448-2.074 6.176-3.625 11.824 3.528-3.699L72 198.9l2.352-2.2 2.125-1.773.972-.676.75-.426 1.2-.472 1.152-.329 1.097-.199.852-.05 1.523.203.727.222.648.324.602.426.523.551.5.676.301.597.426 1.653.125 1.898-.25 2.176-.648 2.25-.477 1.102-.602 1.074-.699 1.05-.824.973-.977.875-1.097.824-2.977 1.75-3.125 1.477-1.597.55-1.551.45-1.227.227-2.324.171-1.148-.074-1.125-.176-1.102-.296-1.074-.454L64 212.7l-2.824 10.852-1.95 8.273-2.203.125Zm0 0"/><path style="stroke:none;fill-rule:nonzero;fill:#f2bc53;fill-opacity:1" d="m142.8 79.477.876-1.454.699-.921 1.574-1.727 1.551-1.3.875-.552.926-.449 1-.347 1.574-.278.824.028.903.074.847.199.926.324.95.45 1.05.624.926.704 1 .847 1.074 1.074 1.148 1.329 4.403 5.449 3.199 4.176 3.227 4.648L174.449 96l1.574 3.176.454 1.8.097 1.95-.097 1.05-.176 1-.301 1-.398.973-.5.926-.653.852-.75.773-1.347.977-.829.375-1.824.574-1.023.148-1.153.051-1.273-.05-1.227-.126-2.898-.648-1.676-.551-3.05-1.176-2.626-1.125-2.273-1.125-2.2-1.222-1.874-1.204-1.551-1.125-1.5-1.222-1.227-1.153-1-1.046-1.597-2.153-.977-1.875-.273-.824-.278-1.398v-1.954l.125-1.625.602-3.597.8-3.45.427-1.425Zm0 0"/><path style="stroke:none;fill-rule:nonzero;fill:url(#a)" d="m159.95 76.176 1.476-.403 1.324-.25 1.227-.097 1.125.023 1.125.153 1.074.296 1.05.403 1 .55 1.876 1.399.949.898 1.898 2.204 1.426 2.25.898 2 .329 1.046.222 1.079.125 1.125v1.097l-.148 1.125-.301 1.153-.3.796-.95 1.676-1.352 1.625-1.875 1.574-1.171.801-1.227.676-1.25.602-1.3.472-1.302.403-1.796.375-1.801.25-1.852.125-3.648-.102-1.778-.2-2.625-.425-2.449-.55-2.324-.65-2.023-.624-3.278-1.25-.722-.375-.477-.403-.324-.449-.2-.523-.078-.551.051-.625.375-1.25.324-.7.602-1 1.477-1.976 2.25-2.472 4.773-4.829 2.875-2.523 1.602-1.227 1.671-1.097 1.153-.653Zm0 0"/></svg>