<svg xmlns="http://www.w3.org/2000/svg" width="1024" height="1024" viewBox="0 0 768 768"><path style="fill:#fff;fill-opacity:1;stroke:none" d="M0 0h768v768H0z"/><path style="stroke:none;fill-rule:nonzero;fill:#0f2941;fill-opacity:1" d="m372.898 172.426-4.046 3-4.278 3.523-4.648 4.352-4.875 5.023-9.153 10.727-9.75 13.125-6.222 9.3-6.301 10.2-6.3 11.023-5.927 11.25-5.773 12-5.7 12.602-7.726 19.347-7.05 20.403-3.075 10.347-2.847 10.5-2.625 10.653-2.25 10.8-2.028 10.797-1.574 10.875-1.273 10.875-.903 10.954-.449 10.949-.074 10.875.375 10.8.824 10.797 2.55 6.829 2.927 6.75 3.296 6.597 3.602 6.45 3.977 6.3 4.199 6.153 4.5 5.921 4.8 5.852 6.672 7.574 6.977 7.2 7.352 6.902 7.574 6.676 7.648 6.375 7.801 6.074 15.824 11.25 19.426 12.3 10.95 6.297 10.8 5.852 18.523 9.3 7.204 3.302 14.847 6.296 46.5-260.546-16.5-29.852-17.55-29.773-13.876-22.204-14.921-22.199-7.653-10.574-7.722-10.273-7.5-9.227-5.176-5.926-9.676-9.972-4.95-4.426-4.573-3.528Zm0 0"/><path style="fill:none;stroke-width:3;stroke-linecap:butt;stroke-linejoin:miter;stroke:#1b3f5f;stroke-opacity:1;stroke-miterlimit:4" d="m503.5 249.198-5 57.203L492.302 388 488 458.5l-2.099 46.901-1.203 44 .104 38.698L486.1 614.5 488 630.198" transform="scale(.75)"/><path style="stroke:none;fill-rule:nonzero;fill:#4b9c81;fill-opacity:1" d="m457.273 546.824-14.398-11.25-16.426-12.074-21.3-14.55-11.848-7.723-21.977-13.204-18.75-10.273-9.676-4.875-19.648-9.074-9.977-4.051-9.972-3.676-9.903-3.3-15-3.973-14.472-2.778-7.278-.898-7.046-.45-6.903-.073-6.75.296-5.398.528-5.176.898-5.102 1.125-4.949 1.5-4.8 1.801-6.524 2.926-5.773 2.926-4.875 2.921-4.278 3-4.125 3.454-3.449 3.375-2.852 3.375-2.398 3.449-2.023 3.676-1.653 3.671-1.199 3.676-.75 3.676-.45 3.824-.073 3.75.148 3.824.523 3.829 1.125 5.023 1.5 5.023 1.954 4.954 2.324 4.875 5.324 9.375 4.5 6.597 4.727 6.074 4.875 5.704 4.574 4.949 4.574 4.426 7.352 6.222 23.699 16.2 8.472 5.328 10.278 6 14.847 7.949 8.477 4.05 8.625 3.825 9.227 3.75 9.824 3.597 9.972 3.153 10.5 2.926 11.102 2.546 8.324 1.579 8.625 1.347 8.852.977 9.148.75 9.153.375h9.296l9.676-.45 9.903-.828 18.898-2.546 8.023-1.5 14.551-3.602 6.45-2.023 10.8-4.051 5.102-2.477 8.25-4.722 3.3-2.329 4.2-3.449 3.375-3.3 2.699-3.149 2.324-3.45 1.727-3.073 1.273-2.926 1.574-5.625.454-5.551-.454-4.273Zm0 0"/><path style="fill:none;stroke-width:6;stroke-linecap:butt;stroke-linejoin:miter;stroke:#2a8063;stroke-opacity:1;stroke-miterlimit:4" d="M233.802 647.099 660.5 783" transform="scale(.75)"/><path style="stroke:none;fill-rule:nonzero;fill:#236c25;fill-opacity:1" d="m418.352 595.05 21.898-29.402 31.8-41.546 18.524-23.477 19.125-23.55 18.824-22.274 17.778-19.727 8.398-8.773 7.352-7.2 4.949-4.5 8.023-6.3 10.426-7.051 10.125-6.45 6.824-3.976 12.977-6.898 6.45-3 6.152-2.477 10.125-3.222 4.125-.903 7.5-.824 3.75.074 3.375.375 3.148.824 2.926 1.125 2.176 1.204 2.023 1.421L669 380.25l1.727 2.023 1.648 2.403 1.574 3.074 1.352 3.3.972 3.524.676 3.824.301 4.125v4.426l-.45 5.028-.976 5.324-1.426 5.773-2.097 6.153-2.7 6.597-2.851 6.074-3.45 6.454-4.124 6.75-4.727 7.046-5.398 7.5-5.477 6.903-6.074 7.125-6.75 7.426-7.5 7.648-8.176 8.023-6.972 6.227-15.301 12.977-12.153 9.449-12.75 9.449-25.722 18-24.903 16.352-22.347 13.949-18.074 10.875-16.579 9.523Zm0 0"/><path style="fill:none;stroke-width:3.001419;stroke-linecap:butt;stroke-linejoin:miter;stroke:#3d903f;stroke-opacity:1;stroke-miterlimit:4" d="m893.5 511.802-6.401 2.698-12.5 7.099-9.198 6.203L855.302 535l-12.901 10.099-18.802 16.099-11.5 10.5L788 594.802l-14.198 14.396-29.401 31.302-17 19-35.099 40.901L652.6 749l-44.5 57.198" transform="scale(.75)"/><path style="stroke:none;fill-rule:nonzero;fill:#9febe8;fill-opacity:1" d="m456.148 588.45 2.403-40.95 4.273-58.426 2.852-33.222 3.375-33.75 3.824-32.403 4.352-29.398 2.398-13.352 2.324-11.25 1.801-7.199 3.45-10.8 5.1-12.973 5.25-12.153 3.75-8.023 7.427-14.324 3.972-6.75 3.977-6 3.898-5.403 3.227-3.898 3.148-3.375 6.074-5.324 3.301-2.176 3.227-1.727 3.222-1.125 3.153-.75 2.625-.148 2.625.074 2.625.523 2.699.829 2.773 1.199 3.153 1.949 3.074 2.25 2.852 2.7 2.773 3.152 2.625 3.671 2.55 4.204 2.024 4.125 1.95 4.5L582 267.75l1.574 5.477 1.352 6 1.125 6.671.972 7.426.602 8.102.3 8.847-.152 9.528-.449 10.347-.898 9.829-1.2 10.347-1.726 11.102-2.176 11.773-2.699 12.45-2.25 9-5.25 18.976-4.574 14.477-4.95 14.699-10.8 29.25-5.625 14.324L534 513.449l-15.148 34.352-15.227 32.472Zm0 0"/><path style="fill:none;stroke-width:1;stroke-linecap:butt;stroke-linejoin:miter;stroke:#fff;stroke-opacity:1;stroke-miterlimit:4" d="m744.901 315.698-4.302 6.5-7.401 14.203-4.896 11.401-5 13-5.901 17.297-7.901 26.599L705 421.5l-8.401 36.302L692 480l-8.5 47.401-4.401 28.198-4 28.203-4 31.5L667 650.198l-3.5 34.901-3.5 38.5-3.401 42.203" transform="scale(.75)"/><path style="fill:none;stroke-width:5;stroke-linecap:butt;stroke-linejoin:miter;stroke:#24735c;stroke-opacity:1;stroke-miterlimit:4" d="m395.599 221.802 10.302 4.698L423 235.401l11 6.5 11.401 7.198L458.198 258l8.5 6.302L484.5 279.1l8.802 8 8.797 8.802 8.802 9.5 12.401 15L535.1 337l5.5 8.698 5.099 9 4.901 9.5 4.5 10 5.5 13.401 4.5 11.901 3.599 10.698L571.9 421l2.5 9.698 1.797 8.5 1.302 8.703.901 7.698.297 13.703-1 11.797-1.396 8.203-1.802 7.198-8.099 26.099-1.302 6.302-.901 6.797v11.901l1.302 16.203 2.802 19L572.6 603.5l6 22.5 7.901 23.401 4.599 11.698 5.099 11.703 5.604 11.599 6.099 11.5 6.599 11 7.198 10.797 5.703 7.802 6.099 7.5 6.401 7.198L646.5 747" transform="scale(.75)"/><path style="stroke:none;fill-rule:nonzero;fill:#97dfca;fill-opacity:1" d="m465.227 407.773 3.148-.898 3.227-.45 3.296-.152 3.301.301 3.153.676 3 .977 2.921 1.273 2.625 1.574 2.25 1.801 2.778 3.227 1.722 3.597.528 2.625.222 2.324-.222 2.102-.528 1.95-.824 1.8-1.273 1.8-1.653 1.723-2.097 1.801-3 1.95-3.75 2.101-4.653 2.176-3.75 1.426-9.222 2.324-14.852 2.25-17.176 1.426 8.25-15 8.176-12.602 5.926-7.426 2.852-2.926 2.097-1.722Zm-100.352 20.102-2.55-3-1.876-2.773-1.199-2.551-.824-2.778-.375-2.546.148-2.329.528-2.324.824-2.097 1.273-1.954 1.5-1.722 1.801-1.5 2.023-1.352 2.176-.972 2.403-.75 2.546-.375 2.551-.153 2.625.301 2.7.602 3.976 1.5 4.05 2.097 4.052 2.403 7.574 5.625 3.375 2.847 5.699 5.403 3.75 4.199 1.125 1.949-1.95 1.273-7.874 3.75-7.801 2.551-4.273 1.051-4.426.676-4.5.222-3.45-.148-3.374-.523-3.375-.977-2.329-.898-2.25-1.278-2.171-1.574Zm73.2-40.727 6.3-7.273 6.75-7.125 8.176-7.8 4.347-3.75 7.352-5.4 5.477-3.152 2.847-1.125 2.477-.597 2.25-.227 3.222.227 2.926.523 2.852.75 2.699 1.051 2.398 1.273 2.028 1.426 1.875 1.727 1.347 1.875 1.051 1.949.676 3.227-.45 3.597-.6 1.727-2.4 3.75-1.8 2.023-1.875 1.574-2.324 1.5-5.625 2.551-6.676 1.95-5.324 1.124-11.324 1.579-15.676.972Zm-59.7-26.324-2.102-1.273-1.648-1.426-1.352-1.426-.972-1.574-.977-2.324-.449-2.403v-2.472l.45-2.551.75-2.398 1.198-2.403 1.5-2.25 1.801-1.949 2.102-1.8 2.25-1.427 2.472-1.046 2.625-.676 2.028-.153 4.273.528 2.324.75 5.25 2.472 5.102 3 4.875 3.227 4.426 3.375 4.125 3.375 6.375 6 1.875 2.176 1.426 1.875.148.523-2.926 1.278-7.199 1.949-9.898 1.8-5.551.598-5.778.227-5.023-.227-4.727-.597-3.148-.676Zm60.074-29.847-.375-.676v-1.125l.45-1.95 1.124-2.851 1.954-3.75 2.472-3.824 3-4.2 3.375-4.124 6.45-6.375 5.476-4.051 2.852-1.574 2.847-1.125 2.7-.676 5.624-.75 4.653-.301 3.898.074 3.824.45 2.852.601 2.102.824 1.574.824 1.574 1.727.375 2.25-.227 1.95-.597 2.027-1.125 2.398-2.477 3.227-3.75 3.523-2.472 1.727-6.454 3.671-4.347 1.954-9.45 3.898-9.75 3.523-4.8 1.352-7.95 1.8-4.05.15Zm-89.847-34.875-4.5-2.176-3.153-2.625-1.574-2.102-1.125-2.176-.676-2.25-.3-2.398.078-2.324.523-2.403.898-2.25 1.204-2.171 1.5-2.028 1.875-1.8 2.097-1.5 2.403-1.274 2.625-.898 2.847-.528 3.153-.074 5.921.45 6.301.902 6.301 1.199 11.926 2.847 9.523 2.852 3.153 1.125 2.472 1.125.375.375-2.097 2.023L394.8 282l-8.102 5.023-9.75 4.954-5.176 2.097-5.25 1.653-7.046 1.347-5.852.074Zm75.375-70.125 2.773-3.375 2.7-2.778 2.698-2.176 2.926-1.875 2.778-1.347 2.699-.977 5.176-.972 4.421.222 3.301 1.125 1.2.903.976 1.273.75 1.574.824 3.676.074 2.102-.148 3.222-.523 3.301-.829 3.074-1.125 2.7L452.25 240l-4.352 6.676-5.625 8.023-6.449 8.176-6.676 7.273-3.375 3.079-3.074 2.25-2.097 1.199-1.875.75-1.653.375-.676-1.574-.449-2.102-.597-7.574.296-10.2.528-5.476.824-5.625 1.125-5.55 1.5-5.098 1.352-3.301 1.421-2.852ZM297 244.574l-2.176-1.05-1.648-1.2-1.278-1.273-.898-1.352-1.05-3.074.073-3.3.602-2.177 1.05-2.171 1.5-2.176 1.802-1.95 2.097-1.726 2.551-1.574 2.7-1.2 2.925-.828 3.3-.523 4.274-.227 10.426.079 16.5 1.046 13.727 1.579 5.023 1.125.523.375-.222.449-1.801 1.273-5.7 3.45-8.476 4.351-10.05 4.648-10.797 4.204-5.329 1.722-8.398 1.95-2.926.374-4.648.079Zm77.7-84.676 1.35-1.949 2.927-2.926 1.648-1.046 2.324-1.051 2.403-.602 2.546-.074 2.403.45 2.398.823 2.324 1.352 1.579 1.273 2.773 3.375 1.2 2.176 1.652 4.727.824 6.222-.153 3.602-.597 3.602-.977 3.597-2.926 6.977-1.796 3.375-3.079 4.8L387 207l-3 3.3-6.824 6.677-1.875-8.926-1.574-9.301-1.352-10.727-.375-5.472-.227-5.403.153-5.25.449-4.574.602-2.926.75-2.472Zm-117.45 45.454-5.398-2.329-3.676-2.847-2.7-3.375-.828-1.801-.824-3.676.227-3.676 1.426-3.523 1.046-1.574 2.926-3 1.801-1.2 4.352-1.953 2.625-.671 6.296-.602 3.676.074 5.551.528 5.852.898 5.847 1.2 10.875 2.85 14.25 4.65-7.722 5.476-8.25 5.023-9.829 5.102-5.25 2.176-5.25 1.648-3.597.898-3.45.528-5.55.074Zm64.05-69.454 2.7-4.199 3.676-3.597 4.347-2.926 2.329-1.2 4.574-1.5 2.324-.374 2.102-.079 1.949.301 1.8.602 1.5.972 1.274 1.426 1.125 2.028.75 2.25.375 2.398v2.477l-.898 5.398-1.352 4.125-1.727 4.352-4.125 8.625-2.398 4.046-2.625 3.75-2.852 3.375-2.625 2.778-6.074 5.472-3.898-11.847-2.176-8.778-.824-4.5-.528-4.574-.074-4.05.227-2.626.449-2.25Zm-66.226.903-1.426-3.153-.972-3.222-.602-3.227-.3-3.375v-3.222l.3-3.153.602-3.148 1.8-5.477 1.274-2.55 1.352-2.024 1.5-1.727 1.648-1.347 1.648-.824 1.727-.375 1.574.074 3.602 1.125 2.097 1.199 2.551 1.8 2.7 2.25 5.476 5.927 5.25 7.046 3.676 5.778 3.222 6 2.176 5.023 1.801 4.95 1.426 5.027 2.023 9.148 1.352 11.625-8.028-3.3-8.171-3.75-9.227-4.876-4.648-2.699-4.5-2.926-4.204-3.074-3.523-3.074-2.176-2.25Zm0 0"/><path style="stroke:none;fill-rule:nonzero;fill:#6ea582;fill-opacity:1" d="m0 681.602 44.102 28.648 543.375-57.977-32.852-36.375-100.8 6.454-5.325-167.028-83.773-12.898-70.954 198.148L296.7 490.5l-108.375 36.898 50.403 116.625-15.227-16.722-13.125-13.2-15.75-14.476-8.625-7.273-11.926-9.227-12.3-8.398-6.149-3.676-10.8-5.551-4.575-1.875-8.773-2.773-3.977-.829-3.75-.375h-3.45l-3.3.301-3.227.676-3.074.898-3 1.204-2.773 1.5-3.528 2.324-3.296 2.699-3.153 3.074-2.847 3.301L87 582.898l-3.3 5.778-2.848 5.847-2.477 5.926-3.75 10.875-1.352 4.5-2.171 9.45 120.148 42.828Zm0 0"/><path style="fill:none;stroke-width:3;stroke-linecap:butt;stroke-linejoin:miter;stroke:#89efea;stroke-opacity:1;stroke-miterlimit:4" d="m390.302 562.901 17.5 13.401 18.896 16.5 11 10.297 12.401 12.401 16.703 18.198 17.698 21.104 8.802 11.5 8.896 12.297 8.5 12.599L519 704.599l8.198 14.099" transform="scale(.75)"/><path style="stroke:none;fill-rule:nonzero;fill:#fd7797;fill-opacity:1" d="m234.523 399 9.903 1.727 4.574 1.046 10.727 3.153 5.625 2.097 7.199 3.301 6.597 4.125 2.852 2.324 4.875 5.028 3.3 2.472 1.575.602h1.125l.898-.45.75-.75.602-1.198.45-1.653.226-2.699-.074-3.523-1.125-7.653-.977-4.05-4.273-13.95-5.625-20.097-2.176-6.903-.903-2.25-.449-.449-2.472 1.574L265.05 371.7Zm0 0"/><path style="stroke:none;fill-rule:nonzero;fill:#ffd8e1;fill-opacity:1" d="m164.398 388.05 7.653-1.124L189 383.699l8.852-2.176 7.5-2.25 3.074-1.347 14.847-9.227 9.75-5.472 10.352-5.477 9.898-4.727 8.329-3.222 2.398-.676 3.074-.3 2.7.374 2.703.824 3.296 1.579 2.625 2.324.977 1.5.676 1.722.3 1.801-.078 2.102-.523 2.55-.898 2.399-1.5 2.926-2.25 3.375-1.801 2.324-5.625 5.55-3.301 2.7-8.176 5.7-4.574 2.624-4.875 2.551-5.398 2.324-5.477 2.102-5.773 1.722-6.079 1.352-4.648.824-9.523.676-4.954-.148-4.875-.375-5.023-.75-5.023-1.204-5.176-1.574-5.028-1.875-5.023-2.398-5.102-2.926Zm0 0"/><path style="fill:none;stroke-width:3;stroke-linecap:round;stroke-linejoin:miter;stroke:#f9ab67;stroke-opacity:1;stroke-miterlimit:4" d="m292.802 475.099 10 4.703 4.198 2.599 7.599 5.797 5.302 5.802 2.198 3.302 1.802 3.5 1.297 3.797M327 499.599l-3.698-11.5-1.302-5.401L319.901 470l-.401-6.5.099-4.401 1.302-8.198" transform="scale(.75)"/><path style="fill:none;stroke-width:3;stroke-linecap:butt;stroke-linejoin:miter;stroke:#89efea;stroke-opacity:1;stroke-miterlimit:4" d="m740.401 502.802-7.099 9.797-5.604 8.703-6.099 10.099-7.5 13.599-10.401 20.698-5.896 12.901-11.401 27.599-6 16.401-5.703 16.5-5.599 18.099-5.698 20-5.203 20.104-5 21.797-4.797 23.703" transform="scale(.75)"/><path style="stroke:none;fill-rule:nonzero;fill:#fd7797;fill-opacity:1" d="m581.773 306.375-30.375 58.426-.375 3 .301 2.472.824 2.477 1.801 3 1.2 1.273 1.425.977 1.727.676 1.949.3 2.023-.152 2.329-.597 2.847-1.204 4.574-3.074 6.153-5.398 11.55-11.477 7.797-7.199 5.25-3.898 5.102-2.778 2.477-.75 2.398-.375 32.625-1.5 11.324-.972 9-1.579 2.403-.75 1.574-.824.972-.676-.296-.898-.829-.898-1.648-.977-2.926-1.125L656.4 330l-15.45-1.875-19.125-1.2-28.347-16.05Zm0 0"/><path style="stroke:none;fill-rule:nonzero;fill:#ffd8e1;fill-opacity:1" d="m735.074 299.023-7.8.153-5.25-.153-12.223-1.125-6.75-1.125-7.2-1.574-4.8-1.347-9.301-3.528-4.5-2.25-4.273-2.55-7.579-5.626-3.523-2.25-3.602-1.949-3.671-1.574-3.75-1.352-3.75-.972-7.579-1.2-5.023-.152-5.023.227-4.954.676-4.875 1.046-4.796 1.426-4.579 1.727-4.5 2.097-4.199 2.329-3.972 2.625-2.852 2.171-4.95 4.727-3.823 5.324-1.5 2.778-1.204 2.773-.824 2.852-.523 2.921-.074 2.852.296 2.852.676 2.847 1.051 2.7 1.5 2.55 2.023 2.625 2.625 2.551 2.778 2.102 3.375 2.097 4.125 1.95 4.875 1.8 6.597 1.875 6.602 1.426 6.523.977 6.528.671 12.449.375 8.926-.375 7.8-.671 13.047-2.028 7.875-1.875 2.25-.75 3.75-1.648 9-4.574 10.653-6.153 5.472-3.449 10.579-7.352L727.8 306l4.199-3.75Zm0 0"/><path style="fill:none;stroke-width:3;stroke-linecap:round;stroke-linejoin:miter;stroke:#f9ab67;stroke-opacity:1;stroke-miterlimit:4" d="m811.901 351.401 3.698 1.401 2.802 1.797 3 2.401 3.5 3.698 2.198 2.802 4.901 7.901 4.401 10 2.198 6.599 1.802 6.698 1.599 8 1.5 9.302 4.698-7.901 2.802-3.797 4.5-5.302 4.802-4.802 5.099-4.297 5-3.599L877 378.5l6.099-2.099 2.703-.401h2.297" transform="scale(.75)"/><path style="stroke:none;fill-rule:nonzero;fill:#20545a;fill-opacity:1" d="m316.05 547.648 6.302 4.204 2.773 1.421 4.352 1.426 2.625.45 2.625.078 3-.227 3.523-.602 3.375-.972 3.977-1.5 4.574-2.176 4.426 4.875 19.421 19.05-12.148-27 16.648-5.476 13.278-3.597 7.426-1.727 7.574-1.352 7.648-1.125 5.102-.449 9.676-.148 6.222 9.449 24.602 35.25-4.5-36.75L480 553.125l18.602 11.852 11.625 8.324 4.796 3.898 2.926 2.7 4.051 4.578 1.426 2.25 1.347 2.773 1.125 3.227 1.352 5.023 1.05 5.773.75 5.852.524 6.074.375 11.625-.148 10.125-.528 9.676-12.148 2.102L503.773 651l-25.347 2.926-18.977 1.199-9.449.227-9.375-.079-9-.523-5.852-.523-10.574-1.801 14.102-4.727L451.727 639l-63.227 6.148-9.824-4.421-9.824-5.102-5.403-3.074-5.699-3.602-5.477-3.824-5.25-4.125-3.296-3-5.477-6.074-2.25-3.227-1.727-3.3-1.273-3.297-.074.222 9.074-6.75-16.648-2.472-4.5-12.301-2.778-9.528-1.199-5.023-.898-5.102-.454-4.796-.074-3.227Zm0 0"/><path style="fill:none;stroke-width:2;stroke-linecap:butt;stroke-linejoin:miter;stroke:#2d666d;stroke-opacity:1;stroke-miterlimit:4" d="m435.401 740.099 2.599 3.599 3.198 3.5 5.604 5.401 6.599 5.802 9.599 7.297 15.198 10.104 9.901 5.797 10.099 5.5L510 792.901l13.599 6.198 13.703 5.802L553 810.802l17.802 6.099 17.896 5.599 20.104 5.599 22.396 5.599L647.9 837.4l37.401 7.297 20.896 3.5" transform="scale(.75)"/><path style="stroke:none;fill-rule:nonzero;fill:#46a5b0;fill-opacity:1" d="m594.523 303.898 2.403 5.625 1.347 3.75 1.352 5.926.602 7.278-.227 4.046-.602 4.579-1.722 6.75-3.227 7.796-4.426 7.801-3 4.278-3.597 4.574 6.972 45.523-15-34.722L563.25 393l-3.227 4.727-1.574 2.921-.3 3.227.226 5.324 1.8 18.528L555.978 417l-2.176-4.8-1.801-3.223-.977-.602-14.171 30.227-4.204 9.449-4.125 10.273-.296 1.278.074 1.421 2.324 10.5 7.352 26.25-16.352-17.023-1.727 10.273-3.597 23.926-1.574 13.95-1.125 13.425-.227 6.375.227 9 .75 5.25 4.5 5.477 11.472 12.523-14.55-2.023L518.101 600l1.796 12.676 2.25 13.199 2.852 12.3 1.648 5.552 1.653 4.421 1.273 2.778 2.477 3.597 2.773 1.727 1.801.523 2.176.375 6.148-.148 3.75-.523 5.625-1.278 6.074-1.8 12.079-4.348 10.949-4.801 11.472-5.852 1.352-.898.824-1.05 8.403-14.552 18.148-34.273 46.125-89.852 1.05-3.222 1.575-6 1.648-7.801 1.954-12.75.296-7.574-.296-2.926-2.551.375-4.95 1.352-12.226 3.824 20.55-20.028-2.1-16.273-2.4-12.148-1.573-6.301-1.954-6.227-2.171-5.699-1.727-3.676-1.875-3.222-1.95-2.704-18.152 12.153-16.574 10.05 25.727-41.25-16.875-23.624-9.45 11.546 4.126-18.898-12.079-12.676-13.722-13.273-5.778-4.801-2.398-1.574Zm0 0"/><path style="fill:none;stroke-width:2;stroke-linecap:butt;stroke-linejoin:miter;stroke:#66bbc5;stroke-opacity:1;stroke-miterlimit:4" d="m710.599 879.802 5.099-35.5 5.5-30.604L729 777l4.901-20.302 5.401-20.599 10.797-35.797 10.099-28.901 5.5-14.401 5.901-14.099 11-24.401 7.901-20.401 3.302-9.901 3.896-13.5 3.302-13 2.599-12.599 2.099-12.698 1.604-12.099 1.099-11.5.797-11.604.401-20.698-.401-14.698-.797-12.5-1.203-11.703-2.599-17.297-2.099-9.901" transform="scale(.75)"/><path style="stroke:none;fill-rule:nonzero;fill:#d1f2db;fill-opacity:1" d="m535.2 602.176-.9 17.25-.152 10.05.375 10.2 1.125 9 1.204 4.8.75 1.723.597.676.903.523 1.574.375 5.176.079 8.472-1.125 7.278-1.5 8.625-2.102 18.898-5.176 20.25-6.148 20.023-6.602 18.375-6.222 28.875-10.204-27.375-15.597 65.176-8.7 8.852-9.226 8.847-10.05 9.829-12.223 4.796-6.602 4.579-6.75 5.25-9.148 2.097-4.426 1.875-4.5 1.278-4.278.824-3.898-3.75.074-8.028-.449-11.773-1.727 24.602-24.972-2.551-17.625-3-15.227-2.625-9.523-1.426-3.903-2.176-4.347-1.05-1.352-1.274 2.778-1.648 2.921-2.25 3-5.25 5.704-8.028 6.824-5.097 3.824-10.278 6.602-9.074 4.875-7.574 3.222-1.278.977-1.421 1.574-1.801 2.7-2.028 3.6-3.523 7.95-3.148 8.55-4.653 15.302-3.148-31.875-69.301 33.296-4.5 35.403-4.2-30.528-9 5.329-9.374 6.148-10.801 8.023-5.477 4.5-8.921 8.329-6.301 7.046-2.852 3.75-2.472 3.75-2.028 3.75-.222 6.227.523 8.25.898 8.773 2.25 15.903Zm0 0"/><path style="fill:none;stroke-width:2;stroke-linecap:butt;stroke-linejoin:miter;stroke:#b1e5c1;stroke-opacity:1;stroke-miterlimit:4" d="m730.198 873.802 8.5-15.302 9.401-15.901 11.703-18.297 6.5-9.401 6.896-9.203 7.104-8.797 7-7.901 4.896-4.901L796.9 780l4.5-3.5 6.698-4.198 6.5-3.604 6.5-3L834.5 760.9l35.401-9.5 9-3.099 5.901-2.5 5.599-2.901 5.401-3.401 13.297-10.302 16.599-14.5 8.901-8.5 9.401-9.599 9.302-10 9.297-10.797L971.5 664.6l8.5-11.698 5.302-8 9.396-16.099 4.104-8.401 3.599-8.203 3-8.198" transform="scale(.75)"/></svg>